<?xml version="1.0" encoding="utf-8"?>
<!-- Generator: Adobe Illustrator 27.5.0, SVG Export Plug-In . SVG Version: 6.00 Build 0)  -->
<svg version="1.1" xmlns="http://www.w3.org/2000/svg" xmlns:xlink="http://www.w3.org/1999/xlink" x="0px" y="0px"
	 viewBox="0 0 500 500" style="enable-background:new 0 0 500 500;" xml:space="preserve">
<g id="Background_Complete">
	<g>
		<rect y="382.398" style="fill:#EBEBEB;" width="500" height="0.25"/>
		<rect x="416.779" y="398.494" style="fill:#EBEBEB;" width="33.122" height="0.25"/>
		<rect x="322.527" y="401.208" style="fill:#EBEBEB;" width="8.693" height="0.25"/>
		<rect x="396.586" y="389.208" style="fill:#EBEBEB;" width="19.192" height="0.25"/>
		<rect x="52.459" y="390.888" style="fill:#EBEBEB;" width="43.193" height="0.25"/>
		<rect x="104.556" y="390.888" style="fill:#EBEBEB;" width="6.333" height="0.25"/>
		<rect x="131.471" y="395.111" style="fill:#EBEBEB;" width="93.676" height="0.25"/>
		<path style="fill:#EBEBEB;" d="M237.014,337.8H43.915c-3.147,0-5.708-2.561-5.708-5.708V60.66c0-3.147,2.561-5.708,5.708-5.708
			h193.099c3.146,0,5.707,2.561,5.707,5.708v271.432C242.721,335.239,240.16,337.8,237.014,337.8z M43.915,55.203
			c-3.01,0-5.458,2.448-5.458,5.458v271.432c0,3.01,2.448,5.458,5.458,5.458h193.099c3.009,0,5.457-2.448,5.457-5.458V60.66
			c0-3.009-2.448-5.458-5.457-5.458H43.915z"/>
		<path style="fill:#EBEBEB;" d="M453.31,337.8H260.212c-3.147,0-5.707-2.561-5.707-5.708V60.66c0-3.147,2.561-5.708,5.707-5.708
			H453.31c3.148,0,5.708,2.561,5.708,5.708v271.432C459.019,335.239,456.458,337.8,453.31,337.8z M260.212,55.203
			c-3.009,0-5.457,2.448-5.457,5.458v271.432c0,3.01,2.448,5.458,5.457,5.458H453.31c3.01,0,5.458-2.448,5.458-5.458V60.66
			c0-3.009-2.448-5.458-5.458-5.458H260.212z"/>
	</g>
	<g>
		<g>
			<polygon style="fill:#E0E0E0;" points="110.447,307.232 110.447,323.927 103.395,329.054 136.32,329.054 125.802,325.156 
				125.802,308.396 			"/>
			<path style="fill:#E0E0E0;" d="M42.29,328.574v52.593h161.967v-52.593H42.29z M201.61,349.171H71.576v-17.19H201.61V349.171z"/>
			<path style="fill:#EBEBEB;" d="M68.037,328.574v52.593h136.22v-52.593H68.037z M201.61,349.171H71.576v-17.19H201.61V349.171z"/>
			<rect x="177.903" y="331.985" style="fill:#E0E0E0;" width="23.71" height="17.186"/>
			<rect x="71.576" y="340.578" style="fill:#E0E0E0;" width="34.333" height="8.593"/>
			<rect x="108.072" y="344.066" style="fill:#E0E0E0;" width="22.082" height="5.104"/>
			<rect x="135.258" y="338.731" style="fill:#E0E0E0;" width="26.037" height="10.441"/>
			<polygon style="fill:#E0E0E0;" points="97.426,352.914 96.796,354.967 88.352,354.967 87.722,352.914 71.576,352.914 
				71.576,375.731 113.572,375.731 113.572,352.914 			"/>
			<polygon style="fill:#E0E0E0;" points="141.391,352.914 140.761,354.967 132.317,354.967 131.687,352.914 115.541,352.914 
				115.541,375.731 157.537,375.731 157.537,352.914 			"/>
			<polygon style="fill:#E0E0E0;" points="185.356,352.914 184.726,354.967 176.282,354.967 175.652,352.914 159.506,352.914 
				159.506,375.731 201.502,375.731 201.502,352.914 			"/>
			<g>
				<path style="fill:#E0E0E0;" d="M179.384,317.207H68.808c-1.95,0-3.53-1.581-3.53-3.53v-64.021c0-1.95,1.581-3.53,3.53-3.53
					h110.577c1.95,0,3.53,1.581,3.53,3.53v64.021C182.915,315.627,181.334,317.207,179.384,317.207z"/>
				<path style="fill:#E6E6E6;" d="M182.149,317.207H71.573c-1.95,0-3.53-1.581-3.53-3.53v-64.021c0-1.95,1.581-3.53,3.53-3.53
					h110.576c1.95,0,3.53,1.581,3.53,3.53v64.021C185.679,315.627,184.099,317.207,182.149,317.207z"/>
				
					<rect x="94.776" y="226.304" transform="matrix(-1.836970e-16 1 -1 -1.836970e-16 408.5273 154.8059)" style="fill:#F0F0F0;" width="64.169" height="110.725"/>
			</g>
		</g>
		<g>
			<path style="fill:#E6E6E6;" d="M280.333,239.966h143.275c11.419,0,20.676,9.257,20.676,20.676v82.206H259.657v-82.206
				C259.657,249.223,268.914,239.966,280.333,239.966z"/>
			<path style="fill:#E0E0E0;" d="M228.532,300.896h18.839c6.786,0,12.286,5.501,12.286,12.286v67.984h-43.412v-67.984
				C216.246,306.397,221.746,300.896,228.532,300.896z"/>
			<path style="fill:#EBEBEB;" d="M228.532,300.896h0.398c6.786,0,12.286,5.501,12.286,12.286v67.984h-24.971v-67.984
				C216.246,306.397,221.746,300.896,228.532,300.896z"/>
			<rect x="246.474" y="349.937" style="fill:#E6E6E6;" width="182.476" height="31.229"/>
			<path style="fill:#F5F5F5;" d="M246.269,321.377h177.333c6.899,0,12.491,5.593,12.491,12.491v7.781
				c0,6.899-5.592,12.491-12.491,12.491H246.269c-6.899,0-12.491-5.592-12.491-12.491v-7.781
				C233.778,326.969,239.37,321.377,246.269,321.377z"/>
			<path style="fill:#E0E0E0;enable-background:new    ;" d="M406.092,321.377h17.282c6.899,0,12.491,5.593,12.491,12.491v7.781
				c0,6.899-5.592,12.491-12.491,12.491h-17.282c-6.899,0-12.491-5.592-12.491-12.491v-7.781
				C393.601,326.969,399.193,321.377,406.092,321.377z"/>
			<path style="fill:#E0E0E0;" d="M425.237,300.896h18.839c6.785,0,12.286,5.501,12.286,12.286v67.984h-43.412v-67.984
				C412.951,306.397,418.452,300.896,425.237,300.896z"/>
			<path style="fill:#F0F0F0;" d="M425.237,300.896h0.398c6.785,0,12.286,5.501,12.286,12.286v67.984h-24.971v-67.984
				C412.951,306.397,418.452,300.896,425.237,300.896z"/>
		</g>
		<g>
			<rect x="51.91" y="89.785" style="fill:#E9E9E9;" width="112.616" height="124.616"/>
			<rect x="56.865" y="94.721" style="fill:#F4F4F4;" width="103" height="115"/>
			<polygon style="fill:#FFFFFF;" points="85.975,94.721 56.865,203.741 56.865,144.721 70.185,94.721 			"/>
			<polygon style="fill:#FFFFFF;" points="98.985,94.721 68.285,209.721 62.495,209.721 93.195,94.721 			"/>
			<polygon style="fill:#FFFFFF;" points="159.865,126.081 159.865,185.111 153.345,209.721 137.555,209.721 			"/>
			<rect x="106.218" y="89.785" style="fill:#E9E9E9;" width="4" height="124.616"/>
			<rect x="53.865" y="115.071" style="fill:#E9E9E9;" width="108.5" height="4"/>
		</g>
		<g>
			<g>
				
					<rect x="321.713" y="130.964" transform="matrix(6.123234e-17 -1 1 6.123234e-17 184.315 490.1158)" style="fill:#E0E0E0;" width="31.005" height="43.873"/>
				
					<rect x="323.734" y="133.027" transform="matrix(6.123234e-17 -1 1 6.123234e-17 184.315 490.1158)" style="fill:#EBEBEB;" width="26.962" height="39.747"/>
			</g>
			<g>
				
					<rect x="336.927" y="92.014" transform="matrix(6.123234e-17 -1 1 6.123234e-17 238.4794 466.3798)" style="fill:#E0E0E0;" width="31.005" height="43.873"/>
				
					<rect x="338.949" y="94.077" transform="matrix(6.123234e-17 -1 1 6.123234e-17 238.4794 466.3798)" style="fill:#EBEBEB;" width="26.962" height="39.747"/>
			</g>
			<g>
				<rect x="367.474" y="137.398" style="fill:#E0E0E0;" width="27.917" height="39.503"/>
				<rect x="369.294" y="139.256" style="fill:#EBEBEB;" width="24.276" height="35.788"/>
			</g>
			<g>
				<rect x="380.268" y="85.579" style="fill:#E0E0E0;" width="31.005" height="43.873"/>
				<rect x="382.289" y="87.643" style="fill:#EBEBEB;" width="26.962" height="39.747"/>
			</g>
			<g>
				
					<rect x="409.907" y="132.36" transform="matrix(-1.836970e-16 1 -1 -1.836970e-16 571.5814 -272.5091)" style="fill:#E0E0E0;" width="24.277" height="34.352"/>
				
					<rect x="411.49" y="133.976" transform="matrix(-1.836970e-16 1 -1 -1.836970e-16 571.5814 -272.5091)" style="fill:#EBEBEB;" width="21.111" height="31.121"/>
			</g>
		</g>
	</g>
</g>
<g id="Background_Simple" style="display:none;">
	<g style="display:inline;">
		<path style="fill:#407BFF;" d="M125.864,190.872c-5.993-1.134-12.115-1.238-18.473,0.471
			c-31.709,8.521-31.984,48.658-22.845,73.861c14.808,40.836,49.26,73.49,90.021,88.501c40.761,15.011,87.082,12.829,127.311-3.555
			c40.229-16.383,74.327-46.423,97.947-82.877c26.334-40.643,50.31-99.616,21.787-145.173
			c-21.098-33.697-65.533-51.13-103.814-39.966c-7.86,2.292-15.359,5.767-22.176,10.304c-26.634,17.725-37.731,48.316-54.403,74.201
			c-11.382,17.672-28.121,35.465-49.472,39.918C168.282,211.451,148.016,195.063,125.864,190.872z"/>
		<path style="opacity:0.9;fill:#FFFFFF;" d="M125.864,190.872c-5.993-1.134-12.115-1.238-18.473,0.471
			c-31.709,8.521-31.984,48.658-22.845,73.861c14.808,40.836,49.26,73.49,90.021,88.501c40.761,15.011,87.082,12.829,127.311-3.555
			c40.229-16.383,74.327-46.423,97.947-82.877c26.334-40.643,50.31-99.616,21.787-145.173
			c-21.098-33.697-65.533-51.13-103.814-39.966c-7.86,2.292-15.359,5.767-22.176,10.304c-26.634,17.725-37.731,48.316-54.403,74.201
			c-11.382,17.672-28.121,35.465-49.472,39.918C168.282,211.451,148.016,195.063,125.864,190.872z"/>
	</g>
</g>
<g id="Shadow_1_">
	<ellipse id="_x3C_Path_x3E__359_" style="fill:#F5F5F5;" cx="250" cy="416.238" rx="193.889" ry="11.323"/>
</g>
<g id="Plant">
	<g>
		<g>
			<path style="fill:#407BFF;" d="M83.425,384.807c-0.152-1.024-3.652-25.172,3.359-33.509c1.552-1.845,3.51-2.81,5.821-2.867
				c14.153-0.331,16.089,11.036,16.106,11.152l-1.669,0.257c-0.065-0.407-1.743-10.027-14.396-9.721
				c-1.831,0.044-3.326,0.786-4.57,2.265c-6.527,7.761-3.017,31.93-2.981,32.173L83.425,384.807z"/>
		</g>
		<g>
			<path style="fill:#407BFF;" d="M82.569,383.706l-1.688-0.053c0.007-0.222,0.561-22.25-10.293-26.801
				c-10.637-4.456-15.422,4.706-15.62,5.099l-1.509-0.759c0.055-0.11,5.67-10.976,17.782-5.897
				C83.164,360.294,82.599,382.753,82.569,383.706z"/>
		</g>
		<g>
			<path style="fill:#407BFF;" d="M82.618,385.437c0-0.351-0.101-35.19-6.894-45.38c-6.522-9.783-17.043-5.177-17.487-4.975
				l-0.698-1.538c0.122-0.055,12.263-5.415,19.59,5.576c7.075,10.613,7.177,44.862,7.178,46.315L82.618,385.437z"/>
		</g>
		<path style="fill:#407BFF;" d="M94.631,349.268c0,0-6.179,2.278-4.342,7.656c1.837,5.378,21.378,14.23,21.378,14.23
			s8.184-7.501,0.668-19.7C104.818,339.254,94.798,345.419,94.631,349.268z"/>
		<path style="fill:#407BFF;" d="M75.418,338.222c0,0,4.387-0.471,4.034-3.143c-0.353-2.672-17.054-9.55-26.908,1.572
			c0,0,6.309,10.838,15.43,10.98C77.094,347.772,75.418,338.222,75.418,338.222z"/>
		<path style="fill:#407BFF;" d="M70.915,356.074c0,0,3.028-2.445-0.24-3.638s-19.301-0.854-19.468,15.028
			c0,0,18.673,3.103,20.985-2.946C74.504,358.467,70.915,356.074,70.915,356.074z"/>
		<path style="opacity:0.2;fill:#FFFFFF;enable-background:new    ;" d="M94.631,349.268c0,0-6.179,2.278-4.342,7.656
			c1.837,5.378,21.378,14.23,21.378,14.23s8.184-7.501,0.668-19.7C104.818,339.254,94.798,345.419,94.631,349.268z"/>
		<path style="opacity:0.2;fill:#FFFFFF;enable-background:new    ;" d="M75.418,338.222c0,0,4.387-0.471,4.034-3.143
			c-0.353-2.672-17.054-9.55-26.908,1.572c0,0,6.309,10.838,15.43,10.98C77.094,347.772,75.418,338.222,75.418,338.222z"/>
		<path style="opacity:0.2;fill:#FFFFFF;enable-background:new    ;" d="M70.915,356.074c0,0,3.028-2.445-0.24-3.638
			s-19.301-0.854-19.468,15.028c0,0,18.673,3.103,20.985-2.946C74.504,358.467,70.915,356.074,70.915,356.074z"/>
		<polygon style="fill:#407BFF;" points="97.951,417.162 68.974,417.162 65.848,385.435 101.077,385.435 		"/>
		<polygon style="opacity:0.5;fill:#FFFFFF;enable-background:new    ;" points="97.951,417.162 68.974,417.162 65.848,385.435 
			101.077,385.435 		"/>
		<rect x="64.3" y="381.935" style="fill:#407BFF;" width="38.324" height="7.001"/>
		<rect x="64.3" y="381.935" style="opacity:0.2;fill:#FFFFFF;enable-background:new    ;" width="38.324" height="7.001"/>
	</g>
</g>
<g id="Bubble">
	<g>
		<path style="fill:#407BFF;" d="M232.628,124.359l13.699-0.655c2.037-0.097,3.609-1.827,3.512-3.864l-0.655-13.699
			c-0.097-2.037-1.828-3.609-3.864-3.512l-13.699,0.655c-2.037,0.097-3.609,1.828-3.512,3.864l0.655,13.699
			C228.86,122.884,230.591,124.456,232.628,124.359z"/>
		<path style="opacity:0.6;fill:#FFFFFF;enable-background:new    ;" d="M232.973,109.623c1.373-2.488,4.261-1.695,5.82,0.112
			c1.38-1.948,4.179-3.013,5.783-0.667c2.705,3.955-2.286,7.978-4.659,9.574c-0.269,0.183-0.491,0.334-0.676,0.453
			c-0.196-0.101-0.432-0.23-0.717-0.386C236.011,117.347,230.658,113.819,232.973,109.623z"/>
		<path style="fill:#407BFF;" d="M237.134,122.508c0,0,3.068,6.19,9.354,7.87c0,0-3.519-1.812-3.571-8.41L237.134,122.508z"/>
	</g>
</g>
<g id="Character_1">
	<g>
		<g>
			<path style="fill:#407BFF;" d="M150.574,180.242c8.272,2.574,8.477,11.092,27.425,27.938
				c10.563,9.39,27.425,13.368,27.425,13.368l-2.288,6.524c0,0-25.281,0.77-51.144-29.352L150.574,180.242z"/>
			<path style="opacity:0.6;fill:#FFFFFF;" d="M205.421,221.552l-2.284,6.518c0,0-3.397,0.098-8.969-1.25
				c-0.768-0.187-1.585-0.404-2.442-0.65c-2.491-0.719-5.317-1.713-8.389-3.092c-0.729-0.325-1.477-0.679-2.245-1.053
				c-2.304-1.122-4.726-2.462-7.237-4.057c-0.679-0.423-1.368-0.876-2.068-1.349c-1.96-1.319-3.968-2.796-6.016-4.44
				c-0.63-0.502-1.26-1.034-1.9-1.575c-1.044-0.886-2.097-1.822-3.161-2.806c-0.738-0.679-1.477-1.388-2.225-2.117
				c-0.591-0.581-1.191-1.181-1.792-1.802c-1.457-1.507-2.934-3.111-4.401-4.815c-0.108-0.108-0.207-0.227-0.305-0.345l-0.522-6.764
				l-0.295-3.919l-0.6-7.798c0.463,0.148,0.896,0.305,1.309,0.482c0.936,0.414,1.772,0.916,2.55,1.526
				c2.235,1.713,4.047,4.244,6.685,7.709c0.63,0.837,1.309,1.723,2.058,2.668c1.664,2.097,3.643,4.46,6.134,7.128
				c0.61,0.65,1.25,1.31,1.92,1.999c0,0.01,0,0.01,0,0.01c1.605,1.625,3.397,3.358,5.405,5.189c0.443,0.404,0.896,0.817,1.368,1.231
				c0.207,0.187,0.414,0.364,0.63,0.542c2.038,1.733,4.283,3.279,6.577,4.637c0.729,0.433,1.457,0.837,2.196,1.231
				c2.481,1.339,4.962,2.462,7.257,3.397c0.807,0.325,1.585,0.63,2.333,0.906C201.867,220.715,205.421,221.552,205.421,221.552z"/>
			<g>
				<path style="fill:#407BFF;" d="M152.293,199.064c-0.108-0.108-0.207-0.227-0.305-0.345l-0.522-6.764
					c0.63-4.224,0.581-8.349,0.413-11.234c0.936,0.414,1.772,0.916,2.55,1.526C154.597,186.816,154.341,193.305,152.293,199.064z"/>
			</g>
			<g>
				<path style="fill:#407BFF;" d="M163.173,192.625c-0.798,4.224-2.215,9.019-4.687,13.056c-0.591-0.581-1.191-1.181-1.792-1.802
					c2.501-4.342,3.771-9.629,4.421-13.922C161.745,190.794,162.424,191.68,163.173,192.625z"/>
			</g>
			<g>
				<path style="fill:#407BFF;" d="M171.227,201.752c0,0.01,0,0.01,0,0.01c-1.27,3.397-3.042,7.158-5.455,10.417
					c-0.63-0.502-1.26-1.034-1.9-1.575c2.451-3.377,4.224-7.375,5.435-10.85C169.917,200.403,170.557,201.063,171.227,201.752z"/>
			</g>
			<g>
				<path style="fill:#407BFF;" d="M178.631,208.723c-1.172,3.023-2.727,6.301-4.775,9.245c-0.679-0.423-1.368-0.876-2.068-1.349
					c2.127-3.042,3.702-6.538,4.844-9.668c0.443,0.404,0.896,0.817,1.368,1.231C178.208,208.369,178.414,208.546,178.631,208.723z"
					/>
			</g>
			<g>
				<path style="fill:#407BFF;" d="M187.403,214.591c-1.004,2.727-2.333,5.701-4.066,8.487c-0.729-0.325-1.477-0.679-2.245-1.053
					c1.762-2.806,3.111-5.888,4.115-8.664C185.936,213.794,186.665,214.197,187.403,214.591z"/>
			</g>
			<g>
				<path style="fill:#407BFF;" d="M196.993,218.894c-0.679,2.511-1.595,5.258-2.826,7.926c-0.768-0.187-1.585-0.404-2.442-0.65
					c1.309-2.727,2.255-5.602,2.934-8.182C195.467,218.313,196.245,218.618,196.993,218.894z"/>
			</g>
			<path style="opacity:0.2;enable-background:new    ;" d="M160.712,207.798c-0.738-0.679-1.477-1.388-2.225-2.117
				c-0.591-0.581-1.191-1.181-1.792-1.802c-1.457-1.507-2.934-3.111-4.401-4.815c-0.108-0.108-0.207-0.227-0.305-0.345l-0.522-6.764
				l-0.295-3.919C154.105,190.794,158.693,196.682,160.712,207.798z"/>
		</g>
		<path style="fill:#263238;" d="M121.324,140.061c0,0,0.335-5.609-5.285-6.777s-9.816,0.055-11.743,6.389
			c-1.928,6.334,1.968,13.775,2.097,16.352c0.13,2.577-4.262,1.534-3.63,4.135c0.631,2.601,3.5,3.23,3.371,4.796
			c-0.13,1.566-3.116,0.529-2.337,5.137c0.779,4.609,5.453,5.118,6.362,3.63c0.909-1.488-2.467-1.487-0.389-3.63
			c2.077-2.143,4.206-1.25,3.401-5.137c-0.805-3.887-0.53-5.611,3.293-7.67S121.324,140.061,121.324,140.061z"/>
		<path style="fill:#263238;" d="M141.317,156.025c0,0,0.787-7.26-1.409-10.017s-5.287-5.009-5.287-5.009s-5.411-4.209-12.406-2.651
			c-6.994,1.558-10.37,8.099-9.591,16.644s7.289,12.358,7.289,12.358s0.674,4.629,7.772,1.861
			C134.784,166.441,141.317,156.025,141.317,156.025z"/>
		<polygon style="fill:#E4897B;" points="180.871,403.521 174.313,404.679 171.623,395.737 169.169,387.53 176.731,384.888 
			178.926,394.752 		"/>
		<path style="fill:#263238;" d="M172.833,404.506c-0.111-0.726,8.872-1.728,8.872-1.728s6.447,4.594,11.976,4.905
			c5.529,0.312,3.125,4.021-2.808,5.069c-5.933,1.048-10.461,1.847-14.677,2.592C171.98,416.088,173.981,412.032,172.833,404.506z"
			/>
		<g>
			<path style="fill:#407BFF;" d="M186.119,404.278c-1.227,0-2.794-0.409-3.219-0.527c-0.029-0.008-0.055-0.02-0.078-0.038l0,0l0,0
				c-0.024-0.017-0.044-0.039-0.061-0.065l0,0c0-0.001,0-0.001,0-0.001c-0.011-0.017-0.019-0.036-0.025-0.057c0,0,0,0,0-0.001
				h-0.001c-0.01-0.035-0.012-0.072-0.006-0.107c0.017-0.102,0.398-2.301,1.513-3.013c0.354-0.228,0.742-0.283,1.155-0.172
				c0.439,0.12,0.679,0.337,0.716,0.644c0.056,0.472-0.495,1.052-1.149,1.565c0.738-0.205,1.51-0.32,2.03-0.135
				c0.276,0.1,0.471,0.274,0.581,0.517c0.227,0.504,0.099,0.814-0.048,0.986C187.271,404.174,186.738,404.278,186.119,404.278z
				 M183.687,403.459c1.408,0.324,3.12,0.526,3.479,0.107c0.031-0.036,0.126-0.147-0.024-0.48c-0.056-0.124-0.157-0.211-0.309-0.265
				C186.129,402.566,184.643,403.061,183.687,403.459z M184.997,400.718c-0.175,0-0.34,0.051-0.499,0.153
				c-0.608,0.388-0.999,1.454-1.187,2.179c1.228-0.733,2.377-1.648,2.329-2.052c-0.015-0.126-0.238-0.205-0.369-0.24
				C185.177,400.731,185.085,400.718,184.997,400.718z"/>
		</g>
		<polygon style="opacity:0.2;enable-background:new    ;" points="178.962,394.955 171.655,395.917 169.185,387.62 
			176.738,384.933 		"/>
		<polygon style="fill:#E4897B;" points="137.087,406.331 130.428,406.331 129.334,397.058 128.345,388.549 136.25,387.263 
			136.698,397.358 		"/>
		<path style="fill:#263238;" d="M129.001,405.904c0.017-0.734,9.038-0.159,9.038-0.159s5.549,5.645,10.94,6.913
			c5.391,1.268,2.378,4.503-3.647,4.503c-6.025,0-10.623,0-14.904,0C126.147,417.162,128.823,413.515,129.001,405.904z"/>
		<g>
			<path style="fill:#407BFF;" d="M142.785,408.054c-1.261,0-3.264-0.917-3.739-1.143c-0.032-0.014-0.059-0.036-0.08-0.062l0,0
				h-0.001c-0.012-0.015-0.023-0.033-0.032-0.05c-0.026-0.056-0.031-0.121-0.009-0.183c0.032-0.089,0.789-2.195,2.013-2.704
				c0.388-0.161,0.781-0.15,1.167,0.032c0.411,0.195,0.611,0.45,0.593,0.759c-0.027,0.474-0.67,0.95-1.403,1.341
				c0.763-0.075,1.544-0.054,2.023,0.221c0.254,0.146,0.416,0.352,0.482,0.611c0.136,0.535-0.044,0.818-0.218,0.961
				C143.393,407.992,143.114,408.054,142.785,408.054z M139.872,406.76c1.329,0.563,2.982,1.061,3.407,0.711
				c0.037-0.031,0.15-0.123,0.06-0.477c-0.034-0.132-0.118-0.235-0.258-0.315C142.43,406.305,140.884,406.535,139.872,406.76z
				 M141.486,404.276c-0.121,0-0.242,0.026-0.365,0.077c-0.666,0.277-1.236,1.258-1.548,1.939c1.337-0.508,2.627-1.21,2.65-1.615
				c0.007-0.126-0.198-0.243-0.322-0.301C141.762,404.309,141.624,404.276,141.486,404.276z"/>
		</g>
		<polygon style="opacity:0.2;enable-background:new    ;" points="136.698,397.564 129.334,397.241 128.345,388.64 136.25,387.309 
					"/>
		<g>
			<path style="fill:#407BFF;" d="M179.579,389.751l-10.781,1.9c-10.88-27.105-18.618-49.731-24.083-68.507
				c-2.944-10.131-5.238-19.14-7-27.135l0.492,29.508v67.03h-10.949c-26.633-127.011-7.758-156.036-7.758-156.036l31.861-5.445
				c1.211,4.755,2.127,12.465,2.668,17.831l1.437,10.535l12.455,64.313L179.579,389.751z"/>
		</g>
		<polygon style="fill:#263238;" points="167.108,390.319 180.481,385.886 180.3,391.574 169.24,395.101 		"/>
		<polygon style="fill:#263238;" points="125.83,390.938 139.77,388.897 138.603,394.467 127.098,396.018 		"/>
		<polygon style="fill:#263238;" points="119.5,231.75 119.5,236.507 151.992,234.015 151.992,228.39 		"/>
		
			<rect x="137.602" y="229.857" transform="matrix(0.996 -0.0892 0.0892 0.996 -20.1797 13.5178)" style="fill:#FFFFFF;" width="7.133" height="5.409"/>
		<g>
			
				<rect x="129.005" y="229.785" transform="matrix(0.9987 -0.0511 0.0511 0.9987 -11.7747 6.9341)" style="fill:#407BFF;" width="1.614" height="8.22"/>
		</g>
		<g>
			
				<rect x="148.855" y="227.606" transform="matrix(0.9987 -0.0509 0.0509 0.9987 -11.6105 7.9254)" style="fill:#407BFF;" width="1.614" height="8.22"/>
		</g>
		<g>
			<path style="fill:#407BFF;" d="M152.129,228.959l-32.501,2.806c-0.512-8.074-1.024-14.237-3.456-23.866
				c-0.778-3.111-1.753-6.587-3.003-10.604c-0.67-2.146-1.408-4.45-2.235-6.932c-0.62-1.88-1.29-3.879-2.028-5.986
				c4.421-1.408,8.92-2.501,13.489-3.259c4.815-0.857,9.698-1.368,14.592-1.536c6.321-0.049,13.587,0.66,13.587,0.66
				s1.034,0.246,1.683,6.951C152.848,193.485,153.429,206.068,152.129,228.959z"/>
			<path style="opacity:0.6;fill:#FFFFFF;" d="M152.904,205.425c-0.01,2.609-0.049,5.474-0.138,8.635
				c-0.02,0.807-0.049,1.625-0.069,2.471c-0.099,2.767-0.217,5.74-0.384,8.93c-0.039,0.807-0.079,1.634-0.128,2.471
				c-0.02,0.335-0.04,0.679-0.059,1.024l-32.501,2.806c-0.02-0.256-0.03-0.512-0.049-0.768c-0.03-0.354-0.049-0.709-0.069-1.053
				c-0.03-0.482-0.069-0.955-0.098-1.428c-0.217-3.062-0.483-5.947-0.906-8.989c-0.118-0.798-0.246-1.605-0.374-2.432
				c-0.433-2.54-0.985-5.248-1.733-8.3c-0.079-0.295-0.148-0.591-0.227-0.896c-0.118-0.492-0.246-0.985-0.384-1.497
				c-0.601-2.304-1.309-4.815-2.156-7.591c-0.148-0.492-0.305-1.004-0.463-1.516c-0.089-0.276-0.177-0.561-0.266-0.847
				c-0.424-1.339-0.876-2.747-1.359-4.224c-0.197-0.61-0.404-1.231-0.61-1.861c-0.424-1.28-0.867-2.619-1.339-4.007
				c-0.226-0.65-0.453-1.31-0.689-1.979c4.421-1.408,8.92-2.501,13.489-3.259c4.815-0.857,9.698-1.369,14.591-1.536
				c6.321-0.049,13.587,0.66,13.587,0.66s0.413,0.098,0.886,1.861c0.266,1.024,0.561,2.619,0.798,5.09
				c0.128,1.329,0.246,2.934,0.344,4.864c0.049,0.768,0.089,1.595,0.118,2.471c0.098,2.392,0.167,5.189,0.187,8.438
				C152.913,203.751,152.913,204.578,152.904,205.425z"/>
			<path style="fill:#407BFF;" d="M147.062,181.991c0,0-2.216,8.882-10.677,9.913c-10.127,1.233-19.922-7.53-19.922-7.53
				s-3.129,0.828-6.87,1.98c-0.226-0.65-0.453-1.31-0.689-1.979c4.421-1.408,8.92-2.501,13.489-3.259
				c4.815-0.857,9.698-1.369,14.591-1.536c6.321-0.049,13.587,0.66,13.587,0.66s0.413,0.098,0.886,1.861
				C148.784,181.582,147.062,181.991,147.062,181.991z"/>
			<g>
				<path style="fill:#407BFF;" d="M152.717,194.525c-16.502-0.108-32.481,2.875-39.088,4.283c-0.148-0.492-0.305-1.004-0.463-1.516
					c-0.089-0.276-0.177-0.561-0.266-0.847c6.557-1.408,22.832-4.47,39.698-4.391C152.648,192.822,152.687,193.649,152.717,194.525z
					"/>
			</g>
			<g>
				<path style="fill:#407BFF;" d="M152.904,205.425c-14.168-0.295-28.188,1.802-36.508,3.367c-0.079-0.295-0.148-0.591-0.227-0.896
					c-0.118-0.492-0.246-0.985-0.384-1.497c8.408-1.575,22.675-3.722,37.119-3.436C152.913,203.751,152.913,204.578,152.904,205.425
					z"/>
			</g>
			<g>
				<path style="fill:#407BFF;" d="M152.766,214.059c-0.02,0.807-0.049,1.625-0.069,2.471c-12.967-0.246-25.786,1.506-34.195,2.993
					c-0.118-0.798-0.246-1.605-0.374-2.432C126.665,215.585,139.632,213.823,152.766,214.059z"/>
			</g>
			<g>
				<path style="fill:#407BFF;" d="M152.313,225.461c-0.039,0.807-0.079,1.634-0.128,2.471c-12.465-0.069-24.605,1.624-32.609,3.062
					c-0.059-0.847-0.108-1.664-0.167-2.481C127.551,227.076,139.77,225.402,152.313,225.461z"/>
			</g>
			<path style="opacity:0.2;enable-background:new    ;" d="M139.238,224.26l-6.429,5.356c0,0-6.764,1.772-13.302,0.325
				c-0.03-0.482-0.069-0.955-0.098-1.428c-0.217-3.062-0.483-5.947-0.906-8.989c-0.118-0.798-0.246-1.605-0.374-2.432
				c-0.433-2.54-0.985-5.248-1.733-8.3c-0.079-0.295-0.148-0.591-0.227-0.896c-0.118-0.492-0.246-0.985-0.384-1.497
				c-0.601-2.304-1.309-4.815-2.156-7.591c-0.148-0.492-0.305-1.004-0.463-1.516c-0.089-0.276-0.177-0.561-0.266-0.847
				c-0.424-1.339-0.876-2.747-1.359-4.224c1.192-1.881,2.639-2.599,4.244-1.516C124.745,196.78,124.833,216.176,139.238,224.26z"/>
		</g>
		<path style="fill:#EBB376;" d="M134.305,186.759c-8.009-1.025-10.416-4.447-10.416-4.447c5.082-4.795,0.86-13.103,0.86-13.103
			l9.641,1.8c-0.254,1.593-0.361,2.93-0.377,4.059c-0.073,5.851,2.573,5.908,2.573,5.908
			C138.277,184.146,134.305,186.759,134.305,186.759z"/>
		<path style="opacity:0.2;enable-background:new    ;" d="M134.389,171.01c-0.254,1.593-0.361,2.93-0.377,4.059
			c-6.512,0-9.264-5.859-9.264-5.859L134.389,171.01z"/>
		<g>
			<path style="fill:none;stroke:#407BFF;stroke-width:0.5;stroke-linecap:round;stroke-linejoin:round;stroke-miterlimit:10;" d="
				M140.973,160.664c2.868-0.019,4.188,4.758,1.76,6.254c-3.135,1.932-5.367-3.119-3.243-5.622"/>
			<path style="fill:#EBB376;" d="M129.059,144.053c8.38-0.459,11.324,3.88,12.41,12.482c1.358,10.75-0.615,18.549-11.219,16.818
				C115.849,171.003,115.142,144.815,129.059,144.053z"/>
			<path style="fill:#D58745;" d="M136.027,156.364c0,0,1.281,2.125,2.629,3.342c0,0-0.655,1.179-2.157,1.069L136.027,156.364z"/>
			<g>
				<path style="fill:#263238;" d="M130.86,155.96c0.054,0.688-0.274,1.274-0.732,1.31c-0.458,0.036-0.873-0.492-0.927-1.18
					c-0.054-0.687,0.274-1.274,0.732-1.31C130.391,154.744,130.806,155.272,130.86,155.96z"/>
				<path style="fill:#263238;" d="M129.744,154.828l1.449-0.704C131.193,154.124,130.547,155.441,129.744,154.828z"/>
			</g>
			<g>
				<path style="fill:#263238;" d="M139.395,155.148c0.054,0.688-0.274,1.274-0.732,1.31c-0.458,0.036-0.874-0.492-0.928-1.18
					c-0.054-0.688,0.274-1.274,0.733-1.31S139.342,154.46,139.395,155.148z"/>
				<path style="fill:#263238;" d="M138.279,154.016l1.449-0.703C139.729,153.312,139.083,154.629,138.279,154.016z"/>
			</g>
			
				<path style="fill:none;stroke:#263238;stroke-width:0.7247;stroke-linecap:round;stroke-linejoin:round;stroke-miterlimit:10;" d="
				M130.459,150.177c0,0-2.372-0.177-3.565,1.466"/>
			
				<path style="fill:none;stroke:#263238;stroke-width:0.7247;stroke-linecap:round;stroke-linejoin:round;stroke-miterlimit:10;" d="
				M136.531,149.49c0,0,1.45-0.629,3.378,0.506"/>
			<g>
				<path style="fill:#263238;" d="M135.457,164.139c-0.429,1.037-0.818,2.964-0.818,2.964c-0.181-0.004-0.362-0.007-0.542-0.021
					c-2.453-0.113-3.553-0.976-4.03-1.898c-0.258-0.505-0.325-1.035-0.322-1.464c-0.002-0.496,0.11-0.851,0.11-0.851
					c1.264,0.837,3.543,1.118,4.766,1.217C135.133,164.134,135.457,164.139,135.457,164.139z"/>
				<path style="fill:#FFFFFF;" d="M134.621,164.087l-0.264,0.868c-2.31-0.112-3.921-0.501-4.612-1.235
					c-0.002-0.496,0.11-0.851,0.11-0.851C131.12,163.706,133.398,163.988,134.621,164.087z"/>
				<path style="fill:#DE5753;" d="M134.097,167.082c-2.453-0.113-3.553-0.976-4.03-1.898c0.834,0.071,1.833,0.249,2.699,0.665
					C133.429,166.165,133.834,166.624,134.097,167.082z"/>
			</g>
			<path style="fill:#263238;" d="M120.674,158.679c0,0,3.541-7.1,2.656-12.383c0,0,16.235-7.694,17.978,9.117
				c0,0,0.803-15.057-13.622-14.601c-14.401,0.455-13.208,21.528-5.425,27.4C122.263,168.213,118.486,163.118,120.674,158.679z"/>
			<path style="fill:#407BFF;" d="M119.023,158.573c0,0-0.686-5.165,2.625-10.326c3.311-5.161,13.539-6.622,18.26-2.24
				c0,0-2.49-4.594-7.725-5.947c-4.498-1.162-16.962-0.87-14.235,17.924L119.023,158.573z"/>
			<path style="fill:#EBB376;" d="M122.14,160.373c-0.13-1.346-1.647-3.553-4.142-3.142c-2.581,0.426-3.527,5.825,3.003,6.753
				C121.938,164.117,122.411,163.182,122.14,160.373z"/>
			<path style="fill:none;stroke:#407BFF;stroke-width:0.5;stroke-linecap:round;stroke-linejoin:round;stroke-miterlimit:10;" d="
				M120.076,162.878c2.838,0.414,3.423,5.335,0.798,6.448c-3.39,1.437-4.835-3.892-2.358-6.046"/>
		</g>
		<path style="fill:#EBB376;" d="M116.463,183.201c0,0,9.404,7.631,18.159,7.507c8.755-0.123,11.832-9.969,11.832-9.969
			S132.874,176.719,116.463,183.201z"/>
		<path style="opacity:0.2;enable-background:new    ;" d="M144.715,323.144c-2.944-10.131-5.238-19.14-7-27.135
			c0,0,0.177-15.537,2.058-28.297C139.773,267.712,144.44,304.211,144.715,323.144z"/>
		<g>
			<g>
				<polygon style="fill:#263238;" points="225.63,168.213 213.165,210.53 210.022,210.149 223.52,163.912 				"/>
				<polygon style="opacity:0.1;fill:#FFFFFF;" points="225.63,168.213 213.165,210.53 210.022,210.149 223.52,163.912 				"/>
			</g>
			<g>
				<g>
					<polygon style="fill:#263238;" points="154.146,217.712 210.022,210.149 209.657,215.556 155.378,224.531 					"/>
					<polygon style="opacity:0.4;fill:#FFFFFF;" points="154.146,217.712 210.022,210.149 209.657,215.556 155.378,224.531 					"/>
				</g>
				<g>
					<polygon style="fill:#263238;" points="210.022,210.149 257.79,230.041 255.415,236.989 209.657,215.556 					"/>
					<polygon style="opacity:0.2;fill:#FFFFFF;" points="210.022,210.149 257.79,230.041 255.415,236.989 209.657,215.556 					"/>
				</g>
				<polygon style="fill:#263238;" points="155.378,224.531 209.657,215.556 255.415,236.989 199.472,254.84 				"/>
			</g>
			<g>
				<path style="fill:#407BFF;" d="M240.53,230.133c-0.05,4.5-6.03,9.52-24.42,12.16c-26.91,3.85-45.55-8.89-45.77-13.55
					c-0.31-6.3,4.18-11.52,22.54-12.63c2.41-0.15,4.85-0.19,7.28-0.16c0.09,0.16,0.18,0.33,0.27,0.51c0.17,0.34,0.36,0.7,0.56,1.08
					c0.05,0.11,0.11,0.23,0.16,0.34c0.03,0.02,0.05,0.05,0.08,0.08l-0.03,0.03c0.44,0.86,0.88,1.77,1.29,2.67
					c0.02,0.04,0.03,0.08,0.05,0.11c0.63,1.39,1.17,2.74,1.44,3.76c0.13,0.44,0.2,0.82,0.2,1.11c0.01,0.44,0.06,0.81,0.15,1.12
					c0.08,0.32,0.2,0.57,0.34,0.78c0.49,0.78,1.21,0.85,1.21,0.85s2,0.05,4.1,0.32c0.97,0.12,1.95,0.28,2.77,0.51
					c2.2,0.6,5.18,0.41,7.7,0.28c0.03-0.03,0.05-0.05,0.08-0.07c0.22-0.17,0.53-0.29,0.77-0.16c0.05,0.03,0.11,0.09,0.16,0.18
					c0.13,0,0.26-0.01,0.38-0.01c2.72-0.08,3.78-0.55,5.45-0.15c1.24,0.29,2.17,0.13,3.03,0.3c0.3,0.07,0.59,0.18,0.88,0.36
					c0.31,0.2,0.68,0.35,1.07,0.45c0.72,0.19,1.52,0.22,2.26,0.1c0.31-0.04,0.61-0.12,0.89-0.22c1.11-0.4,2-0.25,2.78-0.29
					c0.15,0,0.29-0.02,0.43-0.04C239.17,229.863,239.99,230.012,240.53,230.133z"/>
				<path style="opacity:0.3;fill:#FFFFFF;" d="M238.2,229.992c-0.49,3.98-6.2,8.28-22.31,10.6c-24.65,3.53-41.73-8.14-41.93-12.41
					c-0.28-5.77,3.83-10.56,20.64-11.57c1.93-0.12,3.88-0.16,5.83-0.15c0.17,0.34,0.36,0.7,0.56,1.08c0.05,0.11,0.11,0.23,0.16,0.34
					c0.03,0.02,0.05,0.05,0.08,0.08l-0.03,0.03c0.44,0.86,0.88,1.77,1.29,2.67c0.02,0.04,0.03,0.08,0.05,0.11
					c0.63,1.39,1.17,2.74,1.44,3.76c0.13,0.44,0.2,0.82,0.2,1.11c0.01,0.44,0.06,0.81,0.15,1.12c0.08,0.32,0.2,0.57,0.34,0.78
					c0.49,0.78,1.21,0.85,1.21,0.85s2,0.05,4.1,0.32c0.97,0.12,1.95,0.28,2.77,0.51c2.2,0.6,5.18,0.41,7.7,0.28
					c0.03-0.03,0.05-0.05,0.08-0.07c0.22-0.17,0.53-0.29,0.77-0.16c0.05,0.03,0.11,0.09,0.16,0.18c0.13,0,0.26-0.01,0.38-0.01
					c2.72-0.08,3.78-0.55,5.45-0.15c1.24,0.29,2.17,0.13,3.03,0.3c0.3,0.07,0.59,0.18,0.88,0.36c0.31,0.2,0.68,0.35,1.07,0.45
					c0.72,0.19,1.52,0.22,2.26,0.1c0.31-0.04,0.61-0.12,0.89-0.22C236.53,229.883,237.42,230.033,238.2,229.992z"/>
				<path style="opacity:0.3;fill:#FFFFFF;" d="M235.08,231.883c-0.48-0.53-0.62-0.99-0.55-1.38c-0.74,0.12-1.54,0.09-2.26-0.1
					c0.02,0.09,0.04,0.17,0.05,0.26c0.04,0.38-0.22,0.74-0.55,0.93c-0.07,0.04-0.13,0.08-0.2,0.1c-0.85,0.44-1.66,0.38-2.47,1.02
					c-0.13,0.1-0.26,0.21-0.4,0.29c-0.16,0.1-0.33,0.18-0.52,0.2c-0.53,0.05-0.99-0.33-1.51-0.45c-0.56-0.13-1.14,0.05-1.68,0.25
					c-0.45,0.16-0.93,0.34-1.41,0.24c-0.19-0.4,0.1-0.9,0.49-1.09c0.4-0.2,0.87-0.18,1.31-0.16c0.45,0.02,0.92,0.03,1.3-0.19
					c0.16-0.09,0.29-0.21,0.45-0.3c0.6-0.36,1.67-0.61,2.35-0.77c0.26-0.07,0.52-0.13,0.78-0.21c-0.08-0.2-0.12-0.42-0.07-0.65
					c0.02-0.1,0.06-0.19,0.13-0.28c-0.86-0.17-1.79-0.01-3.03-0.3c-1.67-0.4-2.73,0.07-5.45,0.15c-0.12,0-0.25,0.01-0.38,0.01
					c0.32,0.5,0.62,1.84,0.42,2.14c-0.25,0.39-0.59,0.74-1.02,0.95c-0.25,0.11-0.47,0.19-0.74,0.24c-0.62,0.1-1.7,0.22-2.27-0.04
					c-0.17-0.08-0.32-0.2-0.49-0.26c-0.34-0.14-0.73-0.02-1.11-0.04c-0.37-0.02-0.75-0.2-0.95-0.52c-0.2-0.31-0.18-0.78,0.09-1.03
					c0.33-0.3,0.84-0.22,1.28-0.32c0.48-0.1,0.89-0.43,1.37-0.51c0.61-0.11,1.29,0.18,1.84-0.11c0.22-0.11,0.38-0.29,0.57-0.45
					c-2.52,0.13-5.5,0.32-7.7-0.28c-0.82-0.23-1.8-0.39-2.77-0.51c-0.01,0.08-0.04,0.16-0.08,0.23c-0.2,0.33-0.7,0.24-0.89,0.52
					c-0.21,0.32,0,0.63-0.06,0.96c0,0.06-0.02,0.11-0.05,0.17c-0.12,0.24-1.17,0.88-1.44,0.86c-0.3-0.02-0.47-0.36-0.66-0.6
					c-0.12-0.15-0.27-0.27-0.44-0.36c-0.24-0.14-0.51-0.21-0.78-0.25c-0.46-0.06-0.93-0.01-1.4,0.02c-0.11,0.01-0.24,0.01-0.33-0.06
					c-0.06-0.05-0.1-0.13-0.13-0.21c-0.09-0.21-0.17-0.43-0.17-0.67c0-0.23,0.11-0.47,0.32-0.57c0.17-0.08,0.44-0.1,0.45-0.29
					c0-0.09-0.07-0.16-0.11-0.24c-0.11-0.24,0.07-0.52,0.3-0.63c0.05-0.02,0.1-0.04,0.16-0.05c-0.14-0.21-0.26-0.46-0.34-0.78
					c-0.09-0.31-0.14-0.68-0.15-1.12c0-0.29-0.07-0.67-0.2-1.11c-0.27-1.02-0.81-2.37-1.44-3.76c-0.02-0.03-0.03-0.07-0.05-0.11
					c-0.41-0.9-0.85-1.81-1.29-2.67l0.03-0.03c-0.03-0.03-0.05-0.06-0.08-0.08c-0.05-0.11-0.11-0.23-0.16-0.34
					c-0.05,0.03-0.1,0.07-0.15,0.11c-0.21,0.16-0.45,0.34-0.75,0.51c-0.31,0.18-0.68,0.36-1.16,0.51c-0.79,0.24-1.18,0.2-1.39,0.04
					c-0.41-0.31-0.19-1.06-0.96-1.12c-1.17-0.07-2.21,1.05-3.48,0.98c-1.26-0.06-0.89-0.45-1.97-0.77c-1.08-0.32-0.83,1.2-2.68,1.41
					c-1.86,0.21-3.7-0.78-3.84,0.49c-0.12,1.07-3.06,0.28-3.52,1.08c-0.47,0.8,0.22,1.06-1.28,1.25c-1.51,0.19-1.77,1.17-2.77,2.71
					c-1,1.54,0.79,1.58,1.11,2.45c0.16,0.42-0.14,0.79-0.46,1.16c-0.32,0.38-0.65,0.77-0.51,1.23c0.27,0.91,2.93,1.35,4.2,1.48
					s0.42,1.28,0.96,2.64c0.54,1.35,3.31,0.19,3.35,0.91c0.04,0.61,2.12,2.08,4.03,2.19c0.35,0.02,0.69,0,1.02-0.09
					c0.43-0.12,0.85-0.16,1.24-0.16c1.51,0.04,2.69,0.91,3.34,1.74c0.81,1.05,2.91-0.27,3.59-0.1c0.67,0.18,0.72,0.86,1.52,1.32
					c0.8,0.47,4.43-1.19,5.19-1.01c0.75,0.18,2.99,1.37,4.26,1.52c1.27,0.16,3.26-1.84,4.3-1.68c1.04,0.17,4.29,0.54,5.05-0.72
					c0.75-1.26,3.91-0.8,5.3-0.75c1.4,0.05,2.98-0.02,3.45-1.07c0.47-1.04,1.24-0.9,2.57-1.34
					C231.89,234.023,236.43,233.383,235.08,231.883z M210.39,232.232c0.05-0.09,0.09-0.19,0.13-0.28c0.25-0.46,0.89-0.58,1.39-0.41
					c0.5,0.16,0.9,0.52,1.33,0.83c0.21,0.16,0.46,0.31,0.73,0.27c0.03,0.34,0.06,0.67,0.1,1c0.01,0.18-0.03,0.44-0.22,0.44
					c-0.1-0.01-0.18-0.11-0.27-0.15c-0.04-0.02-0.08-0.02-0.13-0.02c-0.28,0.03-0.72,0.39-0.98,0.44h-0.01
					c-0.78,0.15-1.51-0.11-2.22-0.43c-0.31-0.13-0.6-0.28-0.9-0.41c-0.12-0.05-0.25-0.11-0.32-0.22c-0.11-0.18,0.01-0.44,0.19-0.56
					c0.18-0.12,0.4-0.15,0.61-0.2C210.04,232.482,210.26,232.413,210.39,232.232z M194.79,222.893c0.27-0.09,0.56-0.01,0.83-0.09
					c0.44-0.12,0.67-0.6,0.99-0.93c0.47-0.49,1.23-0.68,1.88-0.48c0.57,0.18,1.06,0.64,1.66,0.66c0.24,0.01,0.5-0.05,0.73,0.04
					c0.47,0.17,0.55,0.83,0.96,1.11c0.08,0.06,0.19,0.11,0.21,0.21c0.03,0.13-0.09,0.23-0.2,0.28c-0.39,0.18-0.85,0.11-1.27,0.2
					c-0.44,0.1-0.82,0.38-1.24,0.56c-0.38,0.16-0.65,0.07-1.02,0.09c-0.28,0.02-0.71,0.12-1,0.07c-0.21-0.04-0.42-0.18-0.46-0.4
					c-0.02-0.11,0.01-0.23-0.01-0.35c-0.02-0.09-0.06-0.18-0.13-0.24c-0.17-0.18-0.49-0.24-0.76-0.24c-0.33,0-0.66,0.05-0.98,0.13
					c-0.13,0.03-0.27,0.07-0.39,0C194.35,223.383,194.53,222.973,194.79,222.893z M184.21,226.223c0.01-0.11,0.04-0.21,0.09-0.3
					c0.15-0.29,0.49-0.43,0.79-0.54c0.8-0.3,1.61-0.59,2.41-0.89c0.29-0.11,0.6-0.22,0.91-0.14c0.09,0.02,0.2,0.08,0.21,0.17
					c0.01,0.1-0.07,0.18-0.13,0.25c-0.09,0.09-0.17,0.21-0.22,0.33c-0.12,0.27-0.12,0.57,0.1,0.74c0.08,0.06,0.18,0.1,0.26,0.16
					c0.04,0.01,0.07,0.03,0.09,0.06c0.15,0.15,0.13,0.41,0.04,0.61c-0.05,0.1-0.1,0.19-0.12,0.3c-0.02,0.21,0.7,1.24,0.88,1.34
					c0.01,0,0.03,0.01,0.04,0.02c0.19,0.09,0.41,0.13,0.57,0.26c0.18,0.13,0.27,0.44,0.08,0.57c-0.11,0.08-0.26,0.06-0.39,0.03
					c-0.35-0.07-0.73-0.11-1.06-0.25c-0.27-0.11-0.5-0.37-0.77-0.44c-0.35-0.1-0.73,0.15-1.06-0.12c-0.25-0.21-0.32-0.66-0.65-0.69
					c-0.1-0.01-0.2,0.03-0.29,0.06c-0.45,0.14-0.96,0.03-1.31-0.28C184.32,227.173,184.14,226.682,184.21,226.223z M188.63,233.492
					c-0.05,0.05-0.14,0.06-0.21,0.06c-0.61,0.02-1.05,0.3-1.65,0.03c-0.29-0.14-0.57-0.33-0.89-0.38c-0.05-0.01-0.1-0.02-0.16-0.01
					c-0.11,0-0.23,0-0.34-0.01c-0.01,0.01-0.03,0.01-0.04,0c-0.08,0-0.16-0.01-0.24-0.02c-0.4-0.04-0.76-0.27-1.1-0.48
					c-0.18-0.11-0.36-0.24-0.42-0.43c-0.1-0.3,0.13-0.6,0.35-0.83c0.06-0.06,0.11-0.12,0.17-0.18c0.19-0.19,0.4-0.36,0.64-0.45
					c0.21-0.08,0.43-0.09,0.65-0.1c1.05-0.03,2.11,0.15,3.08,0.54c0.32,0.13,0.68,0.36,0.64,0.69c-0.04,0.3-0.38,0.48-0.45,0.78
					c-0.02,0.09-0.01,0.19,0,0.29c0.02,0.08,0.03,0.16,0.04,0.25C188.71,233.333,188.7,233.432,188.63,233.492z M194.72,235.992
					c-0.02,0.22-0.22,0.37-0.43,0.42c-0.91,0.17-1.48-0.73-2.34-0.77c-0.39-0.01-0.81,0.12-1.15-0.08
					c-0.32-0.19-0.38-0.71-0.12-0.98c0.21-0.21,0.55-0.25,0.85-0.23c0.63,0.04,1.25,0.26,1.87,0.18c0.26-0.03,0.58-0.08,0.71,0.14
					c0.08,0.12,0.06,0.26,0.09,0.39c0.09,0.35,0.53,0.56,0.52,0.9V235.992z M197.4,230.682c-0.18,0.05-0.35,0.14-0.53,0.18
					c-0.43,0.1-0.92-0.12-1.13-0.51c-0.16-0.31-0.17-0.7-0.43-0.92c-0.14-0.1-0.31-0.15-0.41-0.28c-0.18-0.25,0.02-0.61,0.29-0.74
					c0.26-0.13,0.58-0.12,0.87-0.19c0.38-0.09,0.71-0.32,1.08-0.46c0.36-0.15,0.81-0.2,1.12,0.04c0.04,0.03,0.07,0.06,0.1,0.09
					c0.15,0.15,0.26,0.33,0.44,0.43c0.28,0.14,0.62,0.04,0.93,0.02c0.16,0,0.32,0.02,0.45,0.11c0.16,0.11,0.25,0.29,0.36,0.45
					c0.11,0.16,0.28,0.31,0.47,0.27c0.12,0.16,0.01,0.4-0.15,0.51c-0.16,0.11-0.36,0.15-0.54,0.24c-0.25,0.11-0.46,0.29-0.68,0.45
					c-0.2,0.15-0.42,0.28-0.69,0.33C198.43,230.792,197.92,230.523,197.4,230.682z M203.07,236.883c-0.81,0.02-1.63-0.05-2.44-0.13
					c-0.21-0.02-0.37-0.07-0.53-0.2c-0.16-0.14-0.22-0.33-0.24-0.53c-0.01-0.18,0.08-0.4,0.21-0.53c0.11-0.13,0.34-0.26,0.52-0.24
					c0.81,0.08,1.62,0.15,2.44,0.13c0.42-0.01,0.74,0.32,0.77,0.73C203.83,236.512,203.46,236.872,203.07,236.883z M205.91,238.182
					c-0.18-0.06-0.35-0.16-0.51-0.25c-0.28-0.15-0.57-0.27-0.87-0.36c-0.11-0.17,0.03-0.39,0.17-0.55c0.29-0.32,0.59-0.65,0.88-0.98
					c0.2-0.22,0.42-0.45,0.71-0.52c0.33-0.09,0.7,0.09,0.85,0.39c0.07,0.14,0.1,0.3,0.16,0.44c0.19,0.42,0.68,0.6,1.12,0.72
					c0.43,0.11,0.88,0.4,0.57,0.9c-0.04,0.07-0.09,0.12-0.15,0.16l-0.01,0.01c-0.13,0.08-0.3,0.12-0.47,0.12
					c-0.22,0.01-0.46-0.03-0.65-0.04C207.13,238.193,206.48,238.363,205.91,238.182z M214.35,237.372c-0.59,0.18-1.28,0.54-1.9,0.57
					c-0.09,0-0.18,0-0.27-0.01c-0.48-0.07-1.2-0.48-0.87-1.04c0.11-0.16,0.32-0.21,0.52-0.25c0.2-0.04,0.4-0.08,0.6-0.12
					c0.33-0.07,0.67-0.13,1.02-0.1c0.39,0.03,0.76,0.19,1.06,0.46c0.07,0.06,0.14,0.15,0.13,0.25
					C214.63,237.262,214.48,237.333,214.35,237.372z"/>
				<g>
					<path style="fill:#407BFF;" d="M193.951,220.945c0.018,0.619-1.189,1.155-2.694,1.197c-1.505,0.043-2.74-0.424-2.757-1.043
						c-0.017-0.619,1.189-1.155,2.694-1.197C192.699,219.859,193.933,220.326,193.951,220.945z"/>
					<path style="fill:#407BFF;" d="M196.817,225.849c0.018,0.619-1.189,1.155-2.694,1.197c-1.505,0.043-2.74-0.424-2.757-1.043
						s1.188-1.155,2.694-1.197C195.565,224.764,196.799,225.231,196.817,225.849z"/>
					<path style="fill:#407BFF;" d="M204.33,226.762h-0.12c-1.51,0.04-2.74-0.43-2.76-1.04c-0.02-0.6,1.11-1.12,2.53-1.19
						c0.13,0.44,0.2,0.82,0.2,1.11C204.19,226.083,204.24,226.452,204.33,226.762z"/>
					<path style="fill:#407BFF;" d="M212.933,234.962c0.018,0.619-1.188,1.155-2.694,1.197c-1.505,0.042-2.74-0.425-2.757-1.043
						c-0.018-0.619,1.188-1.155,2.694-1.197C211.681,233.876,212.916,234.343,212.933,234.962z"/>
					<path style="fill:#407BFF;" d="M227.29,229.292c0.02,0.62-1.19,1.15-2.69,1.19c-1.51,0.05-2.74-0.42-2.76-1.04
						C224.56,229.363,225.62,228.893,227.29,229.292z"/>
					<path style="fill:#407BFF;" d="M188.516,231.999c0.018,0.619-1.189,1.155-2.694,1.197c-1.505,0.043-2.74-0.424-2.757-1.043
						s1.189-1.155,2.694-1.197C187.264,230.913,188.498,231.381,188.516,231.999z"/>
					<path style="fill:#407BFF;" d="M221.476,235.841c0.018,0.619-1.189,1.155-2.694,1.197c-1.505,0.042-2.74-0.425-2.757-1.043
						c-0.018-0.619,1.189-1.155,2.694-1.197C220.224,234.755,221.458,235.222,221.476,235.841z"/>
					<path style="fill:#407BFF;" d="M202.54,220.773l-0.22,0.01l0.17-0.12C202.51,220.702,202.52,220.742,202.54,220.773z"/>
					<polygon style="fill:#407BFF;" points="193.634,233.862 191.557,232.752 194.268,232.188 196.35,232.617 					"/>
					<polygon style="fill:#407BFF;" points="197.918,237.248 198.953,236.478 202.32,237.903 202.342,238.682 					"/>
					<path style="fill:#407BFF;" d="M203.462,231.577c0,0,0.972-1.624,2.838-1.092c1.866,0.532,2.43-0.197,2.43-0.197l0.892,0.545
						c0,0-1.201,1.638-2.544,0.994c-1.343-0.644-2.658,0.244-2.658,0.244L203.462,231.577z"/>
					<path style="fill:#407BFF;" d="M179.943,226.846l1.787-0.57c0,0,1.224,1.946,2.005,2.021c0.781,0.075,1.947-0.055,1.947-0.055
						l-1.014,1.715C184.667,229.957,180.048,228.888,179.943,226.846z"/>
					<polygon style="fill:#407BFF;" points="228.361,232.881 230.464,231.334 232.154,231.887 229.761,233.365 					"/>
					<polygon style="fill:#407BFF;" points="216.595,227.296 218.698,225.749 220.388,226.303 217.995,227.78 					"/>
					<path style="fill:#407BFF;" d="M216.758,231.553c0,0,0.591-1.207,1.858-0.404c1.267,0.803,1.713-0.022,1.713-0.022l1.027,0.465
						c0,0-0.876,0.83-1.756,0.709c-0.88-0.121-1.964,0.073-1.964,0.073L216.758,231.553z"/>
					<path style="fill:#407BFF;" d="M201.23,217.962l-0.03,0.03l-0.59,0.63c0,0-0.19-0.33-0.52-0.46c-0.28-0.12-0.68-0.07-1.16,0.51
						c-1.01,1.24-2.97,0.08-2.97,0.08l0.64-0.66c0,0,0.3,0.64,0.94,0.62c0.1,0,0.21-0.02,0.34-0.07c0.76-0.28,2.02-1.46,2.96-0.99
						c0.11,0.05,0.22,0.12,0.31,0.23C201.18,217.902,201.2,217.932,201.23,217.962z"/>
					<polygon style="fill:#407BFF;" points="184.42,221.214 186.182,220.639 186.248,222.966 184.7,223.01 					"/>
					<polygon style="fill:#407BFF;" points="178.038,223.198 180.569,223.126 181.173,223.801 178.957,224.688 					"/>
					<polygon style="fill:#407BFF;" points="176.562,227.543 177.673,227.512 177.731,229.569 177.176,229.584 					"/>
					<polygon style="fill:#407BFF;" points="188.936,236.537 191.644,235.857 192.576,237.779 					"/>
					<path style="fill:#407BFF;" d="M197.685,229.005c-0.832-0.028,0.415-1.456,1.026-1.058c0.611,0.397,1.147,0.417,1.147,0.417
						s-0.02,1.025-0.405,1.188C199.069,229.715,198.173,229.021,197.685,229.005z"/>
					<path style="fill:#407BFF;" d="M197.251,223.244c0,0,0.199-1.569,1.195-1.305c0.995,0.264,1.992,1.07,1.271,1.404
						C198.996,223.677,197.042,223.962,197.251,223.244z"/>
					<path style="fill:#407BFF;" d="M206.557,222.268c0,0,0.199-1.569,1.195-1.305c0.996,0.264,1.992,1.07,1.271,1.404
						C208.302,222.701,206.348,222.986,206.557,222.268z"/>
					<polygon style="fill:#407BFF;" points="186.812,225.711 188.609,224.96 188.645,226.233 					"/>
					<polygon style="fill:#407BFF;" points="200.754,234.185 200.717,232.852 203.565,235.226 					"/>
					<polygon style="fill:#407BFF;" points="225.904,227.926 225.866,226.593 228.714,228.967 					"/>
					<polygon style="fill:#407BFF;" points="207.279,238.95 207.268,238.542 209.821,237.886 209.849,238.878 					"/>
					<polygon style="fill:#407BFF;" points="213.362,223.247 213.35,222.839 215.904,222.183 215.932,223.175 					"/>
					<polygon style="fill:#407BFF;" points="224.503,235.902 224.476,234.929 226.783,234.863 226.032,235.859 					"/>
					<polygon style="fill:#407BFF;" points="208.495,227.339 208.468,226.365 210.775,226.3 210.024,227.296 					"/>
				</g>
				<path style="fill:#FFFFFF;" d="M201.15,217.883c0.03,0.02,0.05,0.05,0.08,0.08l-0.03,0.03
					C201.19,217.962,201.17,217.923,201.15,217.883z"/>
				<path style="fill:#FFFFFF;" d="M221.46,229.452c-0.33,0.01-0.66,0.03-1.01,0.05c0.03-0.03,0.05-0.05,0.08-0.07
					c0.22-0.17,0.53-0.29,0.77-0.16C221.35,229.303,221.41,229.363,221.46,229.452z"/>
			</g>
			<g>
				<polygon style="fill:#263238;" points="199.143,243.227 257.79,230.041 255.415,236.989 199.472,254.84 				"/>
				<polygon style="opacity:0.4;fill:#FFFFFF;" points="199.143,243.227 257.79,230.041 255.415,236.989 199.472,254.84 				"/>
			</g>
			<g>
				<polygon style="fill:#263238;" points="155.378,224.531 154.146,217.712 199.143,243.227 199.472,254.84 				"/>
				<polygon style="opacity:0.2;fill:#FFFFFF;" points="155.378,224.531 154.146,217.712 199.143,243.227 199.472,254.84 				"/>
			</g>
			<polygon style="fill:#263238;" points="154.146,217.712 166.898,164.713 223.52,163.912 210.022,210.149 			"/>
			<polygon style="opacity:0.2;fill:#FFFFFF;" points="154.146,217.712 166.898,164.713 223.52,163.912 210.022,210.149 			"/>
			<polygon style="fill:#263238;" points="166.898,164.713 170.322,169.187 158.339,218.631 154.146,217.712 			"/>
			<polygon style="opacity:0.3;fill:#FFFFFF;" points="166.898,164.713 170.322,169.187 158.339,218.631 154.146,217.712 			"/>
			<polygon style="fill:#263238;" points="166.898,164.713 170.322,169.187 225.63,168.213 223.52,163.912 			"/>
			<polygon style="opacity:0.4;fill:#FFFFFF;" points="166.898,164.713 170.322,169.187 225.63,168.213 223.52,163.912 			"/>
		</g>
		<g>
			<path style="fill:#EBB376;" d="M159.934,229.365l9.169,2.348c0,0,1.391-1.391,2.124-1.612c0.732-0.221,7.793,2.172,8.353,2.793
				c0.559,0.621,2.767,6.445,2.767,8.142c0,1.697-9.348-0.103-10.127-0.826c-0.779-0.723-2.986-2.148-2.986-2.148l-11.533-2.453
				L159.934,229.365z"/>
			<path style="fill:#407BFF;" d="M163.173,228.72l-0.896,9.344c0,0-3.101-0.443-7.699-1.359c-0.768-0.158-1.585-0.325-2.432-0.512
				c-2.727-0.581-5.819-1.3-9.009-2.156c-0.788-0.217-1.575-0.433-2.373-0.67c-3.682-1.063-7.414-2.314-10.83-3.751
				c-0.787-0.335-1.565-0.679-2.314-1.044c-3.348-1.575-6.262-3.367-8.329-5.376c-0.128-0.118-0.256-0.246-0.384-0.374
				c-0.414-0.433-0.837-0.916-1.25-1.447c-1.694-2.137-3.358-5.012-4.854-8.221c-0.354-0.738-0.689-1.487-1.014-2.255
				c-1.349-3.19-2.52-6.597-3.367-9.895c-0.217-0.807-0.413-1.615-0.581-2.402c-0.866-3.948-1.211-7.581-0.787-10.279
				c0.138-0.935,0.364-1.762,0.699-2.452c0.305-0.62,0.679-1.122,1.152-1.497c0,0,4.303-1.053,8.31,5.927
				c0.748,1.309,1.496,2.914,2.196,4.864c0.079,0.226,0.167,0.472,0.266,0.729c0.384,1.103,0.847,2.422,1.369,3.85
				c0.374,1.014,0.778,2.077,1.201,3.17c0.64,1.664,1.349,3.367,2.097,4.992c0.364,0.807,0.738,1.585,1.123,2.333
				c0.847,1.644,1.733,3.121,2.639,4.253c0.285,0.355,0.561,0.679,0.847,0.965c0.305,0.305,0.62,0.601,0.955,0.886
				c1.634,1.428,3.653,2.747,5.967,3.948c0.787,0.414,1.595,0.807,2.442,1.191c1.979,0.906,4.116,1.743,6.351,2.501
				c0.778,0.286,1.575,0.542,2.373,0.788c2.255,0.719,4.578,1.369,6.922,1.949c0.798,0.207,1.595,0.394,2.402,0.581
				C158.644,227.834,160.928,228.306,163.173,228.72z"/>
			<path style="opacity:0.5;fill:#FFFFFF;" d="M163.173,228.72l-0.896,9.344c0,0-3.101-0.443-7.699-1.359
				c-0.768-0.158-1.585-0.325-2.432-0.512c-2.727-0.581-5.819-1.3-9.009-2.156c-0.788-0.217-1.575-0.433-2.373-0.67
				c-3.682-1.063-7.414-2.314-10.83-3.751c-0.787-0.335-1.565-0.679-2.314-1.044c-3.348-1.575-6.262-3.367-8.329-5.376
				c-0.128-0.118-0.256-0.246-0.384-0.374c-0.414-0.433-0.837-0.916-1.25-1.447c-1.694-2.137-3.358-5.012-4.854-8.221
				c-0.354-0.738-0.689-1.487-1.014-2.255c-1.349-3.19-2.52-6.597-3.367-9.895c-0.217-0.807-0.413-1.615-0.581-2.402
				c-0.866-3.948-1.211-7.581-0.787-10.279c0.138-0.935,0.364-1.762,0.699-2.452c0.305-0.62,0.679-1.122,1.152-1.497
				c0,0,4.303-1.053,8.31,5.927c0.748,1.309,1.496,2.914,2.196,4.864c0.079,0.226,0.167,0.472,0.266,0.729
				c0.384,1.103,0.847,2.422,1.369,3.85c0.374,1.014,0.778,2.077,1.201,3.17c0.64,1.664,1.349,3.367,2.097,4.992
				c0.364,0.807,0.738,1.585,1.123,2.333c0.847,1.644,1.733,3.121,2.639,4.253c0.285,0.355,0.561,0.679,0.847,0.965
				c0.305,0.305,0.62,0.601,0.955,0.886c1.634,1.428,3.653,2.747,5.967,3.948c0.787,0.414,1.595,0.807,2.442,1.191
				c1.979,0.906,4.116,1.743,6.351,2.501c0.778,0.286,1.575,0.542,2.373,0.788c2.255,0.719,4.578,1.369,6.922,1.949
				c0.798,0.207,1.595,0.394,2.402,0.581C158.644,227.834,160.928,228.306,163.173,228.72z"/>
			<g>
				<path style="fill:#407BFF;" d="M119.674,195.894c-4.756-5.071-9.167-7-12.622-7.571c0.138-0.935,0.364-1.762,0.699-2.452
					c2.767,0.502,5.996,1.762,9.462,4.431c0.748,1.309,1.496,2.914,2.196,4.864C119.487,195.392,119.576,195.638,119.674,195.894z"
					/>
			</g>
			<g>
				<path style="fill:#407BFF;" d="M122.244,202.914c-2.452-1.201-7.315-2.914-13.824-1.91c-0.217-0.807-0.413-1.615-0.581-2.402
					c5.593-0.896,10.131,0.039,13.203,1.142C121.417,200.758,121.821,201.821,122.244,202.914z"/>
			</g>
			<g>
				<path style="fill:#407BFF;" d="M125.464,210.239c-2.629,0.384-7.955,1.29-12.662,2.914c-0.354-0.738-0.689-1.487-1.014-2.255
					c4.559-1.605,9.61-2.54,12.553-2.993C124.705,208.713,125.079,209.491,125.464,210.239z"/>
			</g>
			<g>
				<path style="fill:#407BFF;" d="M129.904,216.344c-2.383,1.191-7.138,3.761-10.614,6.853c-0.128-0.118-0.256-0.246-0.384-0.374
					c-0.414-0.433-0.837-0.916-1.25-1.447c3.416-3.052,7.808-5.533,10.446-6.882c0.285,0.355,0.561,0.679,0.847,0.965
					C129.254,215.763,129.569,216.058,129.904,216.344z"/>
			</g>
			<g>
				<path style="fill:#407BFF;" d="M138.312,221.483c-1.891,1.506-5.543,4.588-8.379,8.133c-0.787-0.335-1.565-0.679-2.314-1.044
					c2.658-3.456,6.045-6.479,8.251-8.28C136.658,220.705,137.465,221.099,138.312,221.483z"/>
			</g>
			<g>
				<path style="fill:#407BFF;" d="M147.036,224.772c-1.083,2.196-2.698,5.671-3.899,9.265c-0.788-0.217-1.575-0.433-2.373-0.67
					c1.182-3.623,2.767-7.089,3.899-9.383C145.441,224.27,146.238,224.525,147.036,224.772z"/>
			</g>
			<g>
				<path style="fill:#407BFF;" d="M156.36,227.302c-0.62,2.333-1.438,5.888-1.782,9.403c-0.768-0.158-1.585-0.325-2.432-0.512
					c0.374-3.584,1.191-7.118,1.812-9.472C154.755,226.928,155.552,227.115,156.36,227.302z"/>
			</g>
		</g>
	</g>
</g>
<g id="Character_2">
	<g id="_x3C_Group_x3E__44_">
		<polygon style="fill:#B97964;" points="332.875,408.869 324.768,408.869 324.097,390.086 332.215,390.086 		"/>
		<path style="fill:#263238;" d="M323.644,407.93h9.85c0.332,0.002,0.619,0.233,0.691,0.557l1.599,7.22
			c0.137,0.646-0.276,1.281-0.923,1.418c-0.087,0.018-0.175,0.027-0.263,0.026c-3.187-0.052-5.508-0.248-9.51-0.248
			c-2.465,0-9.902,0.258-13.305,0.258c-3.404,0-3.847-3.362-2.455-3.672c6.25-1.361,10.954-3.249,12.955-5.044
			C322.653,408.106,323.14,407.921,323.644,407.93z"/>
		<path style="fill:#407BFF;" d="M320.962,409.354c-0.551,0.044-1.1-0.102-1.557-0.413c-0.304-0.251-0.456-0.641-0.402-1.031
			c-0.006-0.228,0.124-0.439,0.33-0.536c0.897-0.464,3.517,1.145,3.806,1.331c0.068,0.035,0.106,0.11,0.093,0.186
			c-0.01,0.079-0.067,0.145-0.144,0.165C322.392,409.233,321.679,409.333,320.962,409.354z M319.755,407.672
			c-0.086-0.007-0.172,0.011-0.248,0.052c-0.052,0-0.113,0.072-0.124,0.227c-0.033,0.259,0.064,0.517,0.258,0.691
			c0.91,0.412,1.942,0.464,2.888,0.144C321.684,408.241,320.743,407.863,319.755,407.672z"/>
		<path style="fill:#407BFF;" d="M323.035,409.065h-0.093c-0.836-0.454-2.455-2.238-2.29-3.094c0.059-0.295,0.318-0.506,0.619-0.505
			c0.294-0.039,0.591,0.051,0.815,0.247c0.939,0.763,1.135,3.094,1.145,3.208c0.001,0.07-0.034,0.137-0.093,0.175
			C323.101,409.096,323.065,409.086,323.035,409.065z M321.405,405.775h-0.093c-0.247,0-0.268,0.144-0.279,0.196
			c-0.103,0.526,0.928,1.877,1.764,2.506c-0.054-0.924-0.389-1.809-0.959-2.537C321.719,405.834,321.565,405.775,321.405,405.775z"
			/>
		<polygon style="opacity:0.2;enable-background:new    ;" points="332.215,390.097 324.097,390.097 324.448,399.782 
			332.565,399.782 		"/>
		<polygon style="fill:#B97964;" points="291.124,409.479 282.756,410.362 281.185,392.316 289.553,391.432 		"/>
		<path style="fill:#263238;" d="M281.871,407.672h9.85c0.332,0.002,0.619,0.233,0.691,0.557l1.599,7.22
			c0.137,0.646-0.276,1.281-0.923,1.418c-0.087,0.018-0.175,0.027-0.263,0.026c-3.187-0.052-5.508-0.247-9.51-0.247
			c-2.465,0-9.902,0.258-13.305,0.258c-3.404,0-3.847-3.362-2.455-3.672c6.25-1.362,10.954-3.249,12.955-5.044
			C280.88,407.848,281.367,407.663,281.871,407.672z"/>
		<path style="fill:#407BFF;" d="M279.189,409.096c-0.551,0.044-1.1-0.102-1.557-0.413c-0.304-0.251-0.456-0.641-0.402-1.031
			c-0.006-0.228,0.124-0.439,0.33-0.536c0.897-0.464,3.517,1.145,3.806,1.331c0.068,0.035,0.106,0.11,0.093,0.186
			c-0.01,0.079-0.067,0.145-0.144,0.165C280.619,408.975,279.906,409.075,279.189,409.096z M277.982,407.415
			c-0.086-0.007-0.172,0.011-0.248,0.051c-0.052,0-0.113,0.072-0.124,0.227c-0.033,0.259,0.064,0.517,0.258,0.691
			c0.91,0.412,1.942,0.464,2.888,0.144C279.911,407.983,278.97,407.605,277.982,407.415z"/>
		<path style="fill:#407BFF;" d="M281.262,408.807h-0.093c-0.836-0.454-2.455-2.238-2.29-3.094c0.059-0.295,0.318-0.506,0.619-0.505
			c0.294-0.039,0.591,0.051,0.815,0.248c0.939,0.763,1.135,3.094,1.145,3.208c0.001,0.071-0.034,0.137-0.093,0.176
			C281.328,408.839,281.292,408.828,281.262,408.807z M279.632,405.517h-0.093c-0.247,0-0.268,0.144-0.279,0.196
			c-0.103,0.526,0.928,1.877,1.764,2.506c-0.054-0.924-0.389-1.809-0.959-2.537C279.946,405.576,279.792,405.517,279.632,405.517z"
			/>
		<polygon style="opacity:0.2;enable-background:new    ;" points="289.553,391.432 281.185,392.316 282.002,401.624 290.37,400.74 
					"/>
		<path style="fill:#407BFF;" d="M328.867,225.339h-43.035c-4.092,22.344-16.9,101.414-7.711,171.865l14.569-1.807
			c0,0-1.349-93.527,11.515-128.104c1.479,18.505,3.236,38.194,4.762,48.67c3.744,25.786,11.758,82.139,11.758,82.139h14.832
			c0,0-3.032-53.94-4.435-79.283C329.588,291.309,328.926,230.99,328.867,225.339z"/>
		<path style="opacity:0.4;fill:#FFFFFF;enable-background:new    ;" d="M328.867,225.339h-43.035
			c-4.092,22.344-16.9,101.414-7.711,171.865l14.569-1.807c0,0-1.349-93.527,11.515-128.104c1.479,18.505,3.236,38.194,4.762,48.67
			c3.744,25.786,11.758,82.139,11.758,82.139h14.832c0,0-3.032-53.94-4.435-79.283C329.588,291.309,328.926,230.99,328.867,225.339z
			"/>
		<path style="fill:#B97964;" d="M268.958,187.793c0,0-10.419,32.838-17.54,34.985c-7.121,2.147-25.236-24.952-25.236-24.952
			s-16.234-0.157-16.961-1.265c-0.727-1.108,4.219-12.54,5.405-12.56s15.32,5.319,15.869,6.21
			c0.549,0.891,16.768,16.402,17.56,15.965c0.791-0.437,6.923-19.978,6.923-19.978L268.958,187.793z"/>
		<path style="fill:#263238;" d="M274.87,184.003l-1.27,2.34l-5.93,10.96l-1.23,2.26l-16.63-5.78c0,0,6.91-25.82,9.31-28.46
			L274.87,184.003z"/>
		<g>
			<path style="fill:#407BFF;" d="M228.161,190.076c0,0,0.464,0.595,0.464,1.582c0,0.987-0.89,2.556-2.143,2.628
				c-1.253,0.073-2.374-0.831-4.088,0c-1.714,0.831-2.538,1.63-3.956,1.956c-1.418,0.326-1.879,0.952-2.67,1.48
				s-1.022,0.851-2.934,0.871c-1.912,0.019-3.132,0.113-3.824,0c-0.692-0.113-3.058,1.654-3.058,1.654s-0.997-1.865,2.3-5.821
				C211.548,190.468,228.161,190.076,228.161,190.076z"/>
			<path style="fill:#407BFF;" d="M228.161,190.076c-0.07,0.15-0.15,0.3-0.23,0.47c-0.2,0.42-0.42,0.9-0.67,1.4
				c-0.06,0.15-0.14,0.31-0.21,0.46c-0.48,1.02-1.32,1.03-2.23,0.88c-0.08-0.01-0.17-0.02-0.26-0.03c-0.68-0.13-1.39-0.29-2.02-0.15
				c-0.69,0.15-1.43,0.48-2.27,0.96c0.06,0.08,0.12,0.15,0.2,0.22c-0.14-0.03-0.27-0.06-0.39-0.1c-0.98,0.59-2.1,1.37-3.42,2.27
				c-0.5,0.34-0.99,0.61-1.48,0.82c-0.12,0.06-0.24,0.11-0.36,0.15c-1.06,0.4-2.09,0.54-3.15,0.53c-0.79-0.01-1.6-0.09-2.43-0.21
				c-2.61-0.36-3.29,2.5-3.29,2.5s-0.5-0.13-0.71-0.77c-0.09-0.24-0.13-0.55-0.09-0.96c0.03-0.3-0.03-0.7-0.14-1.16
				c-0.15-0.62-0.4-1.34-0.68-2.09c-0.54-1.48-1.18-3.04-1.31-3.96c-0.11-0.76,0.21-2.25,0.61-3.68c0.05-0.23,0.12-0.45,0.18-0.68
				c0.05-0.16,0.1-0.32,0.14-0.47C212.801,186.796,221.441,188.176,228.161,190.076z"/>
			<path style="opacity:0.3;fill:#FFFFFF;" d="M227.931,190.546c-0.2,0.42-0.42,0.9-0.67,1.4c-0.06,0.15-0.14,0.31-0.21,0.46
				c-0.48,1.02-1.32,1.03-2.23,0.88c-0.08-0.01-0.17-0.02-0.26-0.03c-0.68-0.13-1.39-0.29-2.02-0.15c-0.69,0.15-1.43,0.48-2.27,0.96
				c0.06,0.08,0.12,0.15,0.2,0.22c-0.14-0.03-0.27-0.06-0.39-0.1c-0.98,0.59-2.1,1.37-3.42,2.27c-0.5,0.34-0.99,0.61-1.48,0.82
				c-0.12,0.06-0.24,0.11-0.36,0.15c-1.06,0.4-2.09,0.54-3.15,0.53c-0.79-0.01-1.6-0.09-2.43-0.21c-2.61-0.36-3.29,2.5-3.29,2.5
				s-0.5-0.13-0.71-0.77c-0.09-0.24-0.13-0.55-0.09-0.96c0.03-0.3-0.03-0.7-0.14-1.16c-0.15-0.62-0.4-1.34-0.68-2.09
				c-0.54-1.48-1.18-3.04-1.31-3.96c-0.11-0.76,0.21-2.25,0.61-3.68c0.05-0.23,0.12-0.45,0.18-0.68
				C212.671,187.186,221.391,188.596,227.931,190.546z"/>
			<path style="opacity:0.3;fill:#FFFFFF;" d="M224.111,190.656c-1.01-0.91-2.08-0.29-3.7-0.43c-1.19-0.1-1.36-0.03-1.77-0.41
				c-0.15-0.14-0.32-0.33-0.59-0.61c-1.02-1.06-1.9-0.35-3.45-0.2c-1.55,0.16-1.82-0.35-3.23-0.57c-1.4-0.22-1.77-0.39-3.18,0.22
				c-1.41,0.61-1.73,0.27-3.69-0.72c-0.35-0.18-0.63-0.27-0.87-0.31c-0.4,1.43-0.72,2.92-0.61,3.68c0.13,0.92,0.77,2.48,1.31,3.96
				c0.28,0.75,0.53,1.47,0.68,2.09c0.11,0.46,0.17,0.86,0.14,1.16c-0.04,0.41,0,0.72,0.09,0.96c0.03-0.04,0.06-0.06,0.09-0.07
				c0.17-0.08,0.44-0.11,0.45-0.3c0-0.09-0.07-0.16-0.11-0.25c-0.11-0.23,0.07-0.52,0.31-0.63c0.23-0.11,0.5-0.1,0.76-0.1
				c0.26-0.01,0.54-0.05,0.73-0.23c0.18-0.18,0.23-0.46,0.42-0.63c0.24-0.23,0.62-0.2,0.95-0.15c0.64,0.09,1.29,0.17,1.93,0.26
				c0.19,0.03,0.4,0.06,0.55,0.17s0.24,0.27,0.35,0.41c1.06,0.01,2.09-0.13,3.15-0.53c0.12-0.04,0.24-0.09,0.36-0.15
				c0.49-0.21,0.98-0.48,1.48-0.82c1.32-0.9,2.44-1.68,3.42-2.27c0.12,0.04,0.25,0.07,0.39,0.1c-0.08-0.07-0.14-0.14-0.2-0.22
				c-0.28-0.41-0.31-0.85-0.94-1.1c-0.04-0.02-0.09-0.03-0.13-0.04c-0.76-0.27-1.32-0.21-2.12,0c-0.36,0.09-0.77,0.07-1.09,0.36
				c-0.22,0.2-0.45,0.46-0.75,0.46c-0.14,0-0.27-0.05-0.39-0.1c-0.24-0.09-0.47-0.18-0.71-0.27c-0.11-0.04-0.25-0.12-0.24-0.24
				c0.01-0.17,0.25-0.18,0.42-0.17c0.39,0.01,0.77-0.19,1.05-0.46c0.86-0.8,1.52-1.48,2.85-1.37c0.92,0.07,1.68,0.5,2.45,0.96
				c0.06,0.04,0.13,0.08,0.19,0.11c0.22,0.14,0.44,0.26,0.66,0.38c0.03,0.01,0.15,0.07,0.21,0.1l0.01,0.01
				c0.08,0.02,0.15,0.04,0.25,0.06c0.05-0.01,0.1,0,0.15-0.01c0.05,0,0.11-0.01,0.16-0.01c0.03,0,0.03,0,0.04,0
				c0.01,0,0.01-0.01,0.04-0.01c0.71-0.14,1.08-0.34,1.74,0.03c0.15,0.08,0.29,0.17,0.42,0.29c0.1,0.06,0.19,0.15,0.28,0.24
				c0.91,0.15,1.75,0.14,2.23-0.88c0.07-0.15,0.15-0.31,0.21-0.46C225.421,191.856,225.101,191.536,224.111,190.656z
				 M206.051,190.406c0.51-0.17,1.29-0.08,1.58-0.02c0.21,0.05,0.43,0.09,0.62,0.19c0.31,0.17,0.55,0.49,0.9,0.56
				c0.19,0.03,0.4-0.01,0.58,0.07c0.24,0.11,0.32,0.47,0.15,0.67c-0.16,0.2-0.47,0.22-0.72,0.16s-0.49-0.18-0.75-0.19
				c-0.39,0-1.37,0.07-2.06-0.15c-0.29-0.09-0.53-0.22-0.66-0.44c-0.04-0.07-0.07-0.15-0.09-0.24c-0.07-0.34,0.13-0.52,0.44-0.61
				H206.051z M210.931,194.636c-0.16,0.14-0.28,0.33-0.44,0.46c-0.3,0.24-0.71,0.26-1.09,0.27c-0.53,0.02-1.09,0.03-1.56-0.22
				c-0.17-0.09-0.32-0.21-0.49-0.29c-0.29-0.14-0.63-0.16-0.94-0.28c-0.3-0.11-0.6-0.38-0.57-0.71c0.02-0.17,0.12-0.32,0.22-0.47
				c0.29-0.4,0.69-0.85,1.18-0.77c0.16,0.03,0.31,0.11,0.46,0.19c0.59,0.3,1.16,0.35,1.81,0.38c0.64,0.03,1.07,0.29,1.7,0.4
				c0.22,0.03,0.38,0.29,0.31,0.51C211.441,194.366,211.141,194.466,210.931,194.636z"/>
			<g>
				<path style="fill:#407BFF;" d="M208.401,196.166c0.02,0.63-1.2,1.17-2.73,1.21c-0.23,0.01-0.45,0-0.66-0.02
					c-0.15-0.62-0.4-1.34-0.68-2.09c0.38-0.09,0.81-0.15,1.27-0.16C207.131,195.066,208.391,195.536,208.401,196.166z"/>
				<path style="fill:#407BFF;" d="M224.571,193.176c0,0.03,0,0.05-0.01,0.08c-0.68-0.13-1.39-0.29-2.02-0.15
					c-0.69,0.15-1.43,0.48-2.27,0.96c0.06,0.08,0.12,0.15,0.2,0.22c-0.14-0.03-0.27-0.06-0.39-0.1c-0.63-0.19-1.04-0.5-1.05-0.85
					c0-0.14,0.05-0.28,0.17-0.41c0.28-0.32,0.89-0.58,1.66-0.72c0.28-0.05,0.59-0.08,0.91-0.09c1.42-0.04,2.6,0.37,2.77,0.93
					C224.561,193.086,224.571,193.136,224.571,193.176z"/>
				<polygon style="fill:#407BFF;" points="205.461,190.045 207.362,191.201 203.755,191.303 				"/>
				<polygon style="fill:#407BFF;" points="212.69,192.375 212.158,191.065 214.113,190.939 214.766,192.317 				"/>
				<path style="fill:#407BFF;" d="M215.181,197.276c-0.12,0.06-0.24,0.11-0.36,0.15l0.08-0.31L215.181,197.276z"/>
				<path style="fill:#407BFF;" d="M209.837,189.44c-1.095-0.488,0.069-1.049,0.965-0.854
					C211.698,188.782,211.741,190.288,209.837,189.44z"/>
				<polygon style="fill:#407BFF;" points="211.456,194.939 213.545,194.628 213.216,195.871 				"/>
				<polygon style="fill:#407BFF;" points="218.628,189.477 220.41,190.227 218.65,190.277 				"/>
			</g>
		</g>
		<path style="fill:#B97964;" d="M224.11,196.105c-0.14-0.03-0.27-0.06-0.39-0.1c0.07-0.04,0.13-0.08,0.19-0.12
			C223.97,195.965,224.03,196.035,224.11,196.105z"/>
		<path style="opacity:0.2;enable-background:new    ;" d="M273.6,186.342l-5.93,10.96c-3.66-7.2-2.6-17.05-2.6-17.05L273.6,186.342
			z"/>
		<g>
			<polygon style="fill:#407BFF;" points="276.455,400.599 294.487,397.916 293.935,392.922 275.178,395.385 			"/>
		</g>
		<g>
			<polygon style="fill:#407BFF;" points="318.94,398.224 336.433,398.224 336.433,392.995 318.28,392.655 			"/>
		</g>
		<g>
			<path style="fill:#263238;" d="M259.122,165.321c0,0,8.744-11.391,25.047-12.157c16.303-0.766,21.421,0.856,27.38,6.175
				c8.703,7.769,19.516,74.725,19.516,74.725s-22.771,7.041-48.854,5.314c0,0-0.196-18.585-6.076-31.113
				C264.7,183.899,259.122,165.321,259.122,165.321z"/>
			<path style="opacity:0.3;fill:#FFFFFF;enable-background:new    ;" d="M330.51,230.702c-0.52-3.07-1.39-8.02-2.5-13.94
				c-0.78-4.11-1.67-8.69-2.65-13.41c-0.39-1.87-0.79-3.77-1.2-5.67c-0.27-1.24-0.55-2.49-0.83-3.73
				c-0.99-4.38-2.04-8.71-3.11-12.77c-0.24-0.9-0.48-1.79-0.72-2.66c-1.62-5.84-3.31-10.94-4.97-14.52c-1-2.18-2.01-3.79-2.98-4.66
				c-1.42-1.27-2.79-2.33-4.28-3.19c-4.75-2.77-10.68-3.57-23.1-2.99c-0.18,0.01-0.36,0.02-0.54,0.04
				c-11.76,0.72-19.5,6.96-22.75,10.19c-1.17,1.16-1.76,1.93-1.76,1.93s0.33,1.11,1,3.14c0.51,1.53,1.21,3.59,2.1,6.09
				c0.8,2.25,1.76,4.87,2.88,7.79c1.56,4.07,3.43,8.73,5.61,13.82c1.04,2.42,2.15,4.95,3.33,7.55c0.68,1.49,1.38,3.01,2.1,4.55
				c1.29,2.74,2.31,5.78,3.11,8.85c0.33,1.29,0.63,2.58,0.89,3.86c0.49,2.38,0.87,4.72,1.15,6.89c0.28,2.1,0.48,4.05,0.61,5.71
				c0.29,3.52,0.31,5.81,0.31,5.81c26.09,1.72,48.86-5.32,48.86-5.32S330.87,232.842,330.51,230.702z M291.15,155.393
				c-0.26,1.05-2.89,4.28-6.51,6.67c-1.91,1.27-4.09,2.3-6.35,2.65c-6.54,1.03-9.09-3.21-9.27-4.88c-0.17-1.67,6.52-5.18,10.94-5.77
				c0.99-0.13,2.11-0.22,3.26-0.26C287.21,153.682,291.46,154.152,291.15,155.393z"/>
			<g style="opacity:0.2;enable-background:new    ;">
				<path d="M320.22,181.182c-1.9,0.2-4.46-0.62-6.58-0.93c-3.02-0.44-7.45,1.63-11.01,2.19c-3.56,0.57-4.75-1.35-7.54-2.19
					c-2.78-0.84-6.31,1.23-9.97,2.68c-3.66,1.46-2.67-1.05-2.67-2.69c0-1.64,4.75-2.72,8.72-3.78c3.96-1.06,2.95-2.1,3.93-6.46
					c0.84-3.78,15.52-5.58,19.43-6C316.44,168.113,318.38,174.232,320.22,181.182z"/>
				<path d="M277.31,177.602c-1.58-0.08-3.27-0.23-4.9,1.43c-1.63,1.66,1.83,3.79-2.79,3.41c-2.23-0.18-3.51-0.2-4.52-0.1
					c-1.12-2.92-2.08-5.54-2.88-7.79c3.98,0.03,8.29,0.48,8.29,0.48s3.72-0.08,5.95-0.47c2.23-0.4,4.56-1.84,5.87-0.92
					C283.64,174.563,278.89,177.673,277.31,177.602z"/>
				<path d="M301.49,197.523c-2.23,0.18-6.97-0.58-8.56,0c-1.58,0.58-2.77,0.13-5.53,2.23c-2.77,2.1-3.99,4.1-7.44,3.7
					c-2.38-0.28-4.6-0.07-5.92,0.26c-1.18-2.6-2.29-5.13-3.33-7.55c2.92-0.16,6.74-0.48,7.58-1.06c1.39-0.96,4.15-3.02,6.83-2.49
					c2.67,0.54,8.21,1.91,9,2.02c0.79,0.1,2.05,0.4,5.08-0.64c3.03-1.04,3.41-1.14,5-0.79
					C305.79,193.553,303.72,197.333,301.49,197.523z"/>
				<path d="M325.36,203.352c-0.33-0.03-0.65,0-0.98,0.1c-1.97,0.6-2.57,0.18-3.75,0c-1.19-0.19-4.55-0.21-8.11,0
					c-3.56,0.21-4.95,1.17-8.32,1.27c-3.37,0.1-3.35-0.69-2.71-2.67c0.64-1.98,2.72,0,3.72,0c1.01,0,4.14-0.39,6.32-2.3
					c2.17-1.9,4.74-1.65,6.4-3.65c0.99-1.19,2.54-1.94,5.4-2.15C324.04,197.092,324.72,200.253,325.36,203.352z"/>
				<path d="M311.13,217.712c0,0-2.26,2.22-6.37,3.07c-4.11,0.85-11.23,1.05-11.23,1.05s-7.05,1.17-9.36-0.01
					c-1-0.5-2.57-0.74-4.03-0.85c-0.26-1.28-0.56-2.57-0.89-3.86c2.66,0.46,6.24,0.88,8.34,0.23c3.37-1.05,7.51-3.42,7.51-3.42
					c6.93-3.96,8.91-4.21,11.48-3.39c2.57,0.82,6.09,1.79,6.7,1.5c0.62-0.29,1.56,0.88,4.65,0c3.09-0.88,3.49-3.51,4.28-1.5
					C323,212.542,311.13,217.712,311.13,217.712z"/>
				<path d="M330.51,230.702c-1.77,0.92-4.11,1.82-6.92,2.23c-6.72,0.97-7.51,1.51-13.64,1.93c-6.14,0.42-11.02-1.16-11.02-1.16
					s-2.24-0.1-3.03-1.63c-1.36-2.64,4.86-3.43,8.86-4.56c4-1.13,4.79-1.66,6.57-2.68c1.78-1.02,3.56-2.12,3.56-2.12l5.34-2.07
					c0,0,2.87-3.3,5.34-3.5c0.67-0.05,1.54-0.2,2.44-0.38C329.12,222.682,329.99,227.633,330.51,230.702z"/>
				<path d="M283.63,231.473c-0.69,0.66-1.22,1.44-1.73,2.1c-0.13-1.66-0.33-3.61-0.61-5.71c1.35-0.08,2.9-0.12,4.08,0.01
					c2.62,0.29,2.98-1.07,3.59-0.09C289.57,228.762,285.38,229.773,283.63,231.473z"/>
				<path d="M307.27,156.152c-0.79,0.66-2.02,1.2-3.91,1.41c-6.87,0.78-5.68-0.34-9.24,1.21c-3.56,1.55-0.18,1.73-5.16,2.72
					c-1.77,0.35-3.21,0.51-4.32,0.57c3.62-2.39,6.25-5.62,6.51-6.67c0.31-1.24-3.94-1.71-7.93-1.59c0.14-0.21,0.28-0.41,0.41-0.6
					c0.18-0.02,0.36-0.03,0.54-0.04C296.59,152.583,302.52,153.383,307.27,156.152z"/>
				<path d="M261.49,168.133c-0.48-0.05-0.89,0.05-1.37,0.33c-0.67-2.03-1-3.14-1-3.14s0.59-0.77,1.76-1.93
					c1.27,0.13,2.47,0.3,3.05,0.52c1.51,0.56,4.29,0.77,4.88,0.96C269.4,165.063,262.49,168.232,261.49,168.133z"/>
			</g>
		</g>
		<path style="opacity:0.2;enable-background:new    ;" d="M304.201,267.298c-1.898,5.095-3.476,11.459-4.807,18.617
			c-1.203-16.466,3.61-33.931,3.61-33.931L304.201,267.298z"/>
		<path style="fill:#B97964;" d="M288.962,155.425c-1.762,5.038-8.322,7.336-11.763,7.627c-4.828,0.409-6.236-3.38-6.236-3.38
			s3.924-1.952,3.537-4.16c-0.227-1.285-0.837-2.538-1.62-3.744c-0.404-0.637-0.868-1.254-1.344-1.852l6.295-13.492
			C279.24,142.313,283.542,153.542,288.962,155.425z"/>
		<path style="opacity:0.2;enable-background:new    ;" d="M278.085,142.693c3.005,6.537-1.238,11.09-3.585,12.82
			c-0.227-1.285-0.837-2.538-1.62-3.744L278.085,142.693z"/>
		<g>
			<path style="fill:#263238;" d="M256.971,125.163c0,0-2.014,11.121,3.792,15.585c5.807,4.464,6.395-16.328,6.395-16.328
				L256.971,125.163z"/>
			<path style="fill:#B97964;" d="M277.724,150.112c-2.993,4.053-7.715,5.003-11.751,3.599c-2.595-0.899-4.905-2.78-6.295-5.43
				c-0.186-0.346-0.351-0.712-0.506-1.088c-2.725-6.908-3.315-18.873,4.029-23.144c5.215-3.082,11.956-1.354,15.038,3.872
				c0.887,1.48,1.397,3.156,1.513,4.882C280.412,140.808,281.177,145.484,277.724,150.112z"/>
			<path style="fill:#263238;" d="M267.997,136.738c0.136,0.635-0.172,1.218-0.602,1.278c-0.43,0.06-0.839-0.422-0.935-1.066
				c-0.096-0.644,0.182-1.22,0.602-1.278C267.483,135.614,267.9,136.084,267.997,136.738z"/>
			<path style="fill:#263238;" d="M260.678,137.775c0.136,0.635-0.182,1.22-0.602,1.278c-0.42,0.058-0.839-0.422-0.934-1.066
				c-0.096-0.644,0.182-1.22,0.602-1.278C260.163,136.651,260.589,137.161,260.678,137.775z"/>
			<path style="fill:#A24E3F;" d="M263.048,137.764c-0.49,2.089-1.267,4.101-2.308,5.978c0.992,0.516,2.161,0.567,3.194,0.14
				L263.048,137.764z"/>
			<path style="fill:#263238;" d="M269.932,134.046c-0.138,0.04-0.286,0.003-0.39-0.096c-0.676-0.704-1.645-1.049-2.614-0.928
				c-0.206,0.045-0.409-0.086-0.454-0.292c-0.044-0.206,0.086-0.409,0.293-0.454c0,0,0.001,0,0.002,0
				c1.221-0.183,2.455,0.237,3.31,1.127c0.154,0.144,0.162,0.386,0.018,0.539c-0.002,0.002-0.004,0.005-0.006,0.007
				C270.043,133.989,269.99,134.022,269.932,134.046z"/>
			<path style="fill:#263238;" d="M257.175,135.697c-0.067,0.039-0.145,0.055-0.222,0.048c-0.202-0.061-0.315-0.275-0.254-0.476
				c0.001-0.003,0.002-0.005,0.002-0.008c0.352-1.188,1.261-2.129,2.435-2.525c0.203-0.055,0.413,0.065,0.468,0.268l0,0.001
				c0.05,0.203-0.069,0.409-0.269,0.469l0,0c-0.918,0.339-1.621,1.092-1.897,2.03C257.384,135.604,257.287,135.675,257.175,135.697z
				"/>
			<path style="fill:#263238;" d="M272.51,123.711l-0.101,3.565c1.214,0.508,2.033,1.747,1.63,3.185
				c-0.861,3.071,1.251,7.512,3.697,9.133c0,0-0.049-1.291,1.063-1.088c1.112,0.204,1.438,6.92-0.378,10.308
				c0,0,3.876-3.562,5.025-10.752c1.063-6.65,0.88-10.864-0.064-14.043L272.51,123.711z"/>
			<path style="fill:#B97964;" d="M284.149,138.831c-0.627,1.924-1.992,3.521-3.794,4.441c-2.395,1.201-4.103-0.822-3.872-3.352
				c0.227-2.247,1.725-5.649,4.344-5.773C283.447,134.023,284.889,136.459,284.149,138.831z"/>
			<path style="fill:#263238;" d="M274.402,126.922c0,0-1.741,3.249-5.34,3.279c0,0,1.293-0.195,2.337-2.16
				c0,0-4.977,3.009-9.594,1.955c0,0,1.917-0.304,2.567-1.557c0,0-5.117,2.051-9.009-0.255c-3.892-2.306-2.978-6.633,0.234-8.257
				c0,0-0.443,1.654,0.465,2.232c0,0-0.031-4.99,8.671-6.458c8.703-1.469,17.075,1.011,19.472,4.904c0,0-1.032-0.821-2.219-0.854
				c0,0,5.564,4.19,1.861,7.403C280.637,129.935,274.402,126.922,274.402,126.922z"/>
			<g>
				<path style="fill:#263238;" d="M265.072,146.215c0.821,0.79,1.968,2.425,1.968,2.425c0.167-0.077,0.334-0.154,0.496-0.24
					c2.236-1.104,2.909-2.355,2.977-3.406c0.035-0.576-0.119-1.095-0.297-1.493c-0.2-0.463-0.449-0.747-0.449-0.747
					c-0.836,1.293-2.841,2.483-3.939,3.073C265.371,146.079,265.072,146.215,265.072,146.215z"/>
				<path style="fill:#FFFFFF;" d="M265.828,145.827l0.599,0.7c2.104-1.045,3.445-2.063,3.789-3.027
					c-0.2-0.463-0.449-0.747-0.449-0.747C268.931,144.047,266.926,145.237,265.828,145.827z"/>
				<path style="fill:#DE5753;" d="M267.536,148.4c2.236-1.104,2.909-2.355,2.977-3.406c-0.748,0.405-1.604,0.977-2.24,1.718
					C267.783,147.275,267.593,147.867,267.536,148.4z"/>
			</g>
		</g>
		<path style="opacity:0.2;enable-background:new    ;" d="M324.16,197.682c-10.33-4.29-18.5-22.02-18.5-22.02l5.87-3.55l7.97,6.41
			c0.24,0.87,0.48,1.76,0.72,2.66c1.07,4.06,2.12,8.39,3.11,12.77C323.61,195.193,323.89,196.443,324.16,197.682z"/>
		<path style="fill:#B97964;" d="M317.718,162.189c0,0,19.47,19.548,22.131,23.351s7.735,45.917,7.735,45.917
			s1.069,0.371,1.162,1.282c0.093,0.911,0.171,12.738,0,13.286c-0.171,0.548-9.138,6.078-10.457,4.763
			c-1.319-1.314-3.165-14.71-3.165-14.71l4.724-4.621c0,0-5.501-31.02-8.937-36.04c-3.436-5.02-17.627-15.777-17.627-15.777
			L317.718,162.189z"/>
		<path style="fill:#263238;" d="M302.747,154.32c-2.839,6.01-0.68,18.666,4.549,23.133c7.912,6.758,17.505,12.56,17.505,12.56
			l9.568-12.508c0,0-10.161-9.922-16.314-15.637C310.572,154.917,302.747,154.32,302.747,154.32z"/>
	</g>
</g>
<g id="Character_3">
	<g>
		<path style="fill:#EEC1BB;" d="M423.62,199.79l-7.56,5.66l-42.42-4.21l0.64-24.08c0,0,7.83-1.63,18.1-0.97
			c2.9,0.19,5.95,0.83,8.86,1.7c0.83,0.24,1.66,0.51,2.47,0.78c6.35,2.18,11.57,5.07,12.35,5.82
			C417.29,185.68,423.62,199.79,423.62,199.79z"/>
		<path style="fill:#263238;" d="M402.78,196.38c3.03,7.63-8.9,1.17-8.9,1.17l4.02-4.35c0,0-1.07-8.62,3.34-15.31
			c0.83,0.24,1.66,0.51,2.47,0.78C402.82,181.27,400.23,189.96,402.78,196.38z"/>
		<path style="fill:#EEC1BB;" d="M427.51,187.251l-2.113-11.148c0,0-0.863-2.738-0.254-3.896c0.609-1.158,6.172-6.697,7.24-6.538
			c1.068,0.159,4.722,5.037,4.037,6.558c-0.685,1.521-6.18,5.618-6.852,5.801l3.035,8.54L427.51,187.251z"/>
		<path style="fill:#263238;" d="M403.886,138.185c0,0-5.973-7.45-15.796-5.785c-9.822,1.665-8.039,19.782-8.039,19.782
			s-6.065,4.736-4.162,12.931c1.903,8.195,24.204,12.942,32.734,7.239c8.53-5.703,1.926-23.783-2.172-26.34
			C402.352,143.454,403.886,138.185,403.886,138.185z"/>
		<path style="fill:#EEC1BB;" d="M388.601,182.663c8.009-1.025,10.416-4.446,10.416-4.446c-5.082-4.795-0.86-13.103-0.86-13.103
			l-9.64,1.8c0.253,1.593,0.361,2.93,0.377,4.059c0.073,5.851-2.573,5.909-2.573,5.909
			C384.629,180.05,388.601,182.663,388.601,182.663z"/>
		<path style="opacity:0.2;enable-background:new    ;" d="M388.517,166.913c0.253,1.593,0.361,2.93,0.377,4.059
			c4.648-1.077,9.264-5.859,9.264-5.859L388.517,166.913z"/>
		<g>
			<path style="fill:#EEC1BB;" d="M397.111,140.232c-8.167-1.935-11.831,1.814-14.424,10.088c-3.24,10.34-2.679,18.365,8.064,18.538
				C405.342,169.095,410.674,143.446,397.111,140.232z"/>
			<path style="fill:#D4827D;" d="M388.074,151.115c0,0-1.637,1.865-3.179,2.824c0,0,0.436,1.276,1.934,1.434L388.074,151.115z"/>
			<g>
				<path style="fill:#263238;" d="M393.231,151.632c-0.175,0.667,0.044,1.302,0.489,1.419c0.445,0.117,0.947-0.33,1.121-0.997
					c0.175-0.667-0.044-1.302-0.489-1.419C393.908,150.518,393.406,150.965,393.231,151.632z"/>
				<path style="fill:#263238;" d="M394.53,150.716l-1.302-0.949C393.228,149.766,393.631,151.177,394.53,150.716z"/>
			</g>
			<g>
				<path style="fill:#263238;" d="M384.974,149.322c-0.175,0.667,0.044,1.302,0.489,1.419c0.445,0.117,0.947-0.33,1.122-0.997
					c0.175-0.667-0.044-1.302-0.489-1.419C385.651,148.208,385.149,148.654,384.974,149.322z"/>
				<path style="fill:#263238;" d="M386.273,148.405l-1.302-0.949C384.971,147.456,385.374,148.866,386.273,148.405z"/>
			</g>
			
				<path style="fill:none;stroke:#263238;stroke-width:0.7247;stroke-linecap:round;stroke-linejoin:round;stroke-miterlimit:10;" d="
				M394.65,146.012c0,0,2.365,0.245,3.249,2.074"/>
			
				<path style="fill:none;stroke:#263238;stroke-width:0.7247;stroke-linecap:round;stroke-linejoin:round;stroke-miterlimit:10;" d="
				M388.795,144.26c0,0-1.316-0.876-3.414-0.1"/>
			<g>
				<path style="fill:#263238;" d="M387.259,158.868c0.239,1.096,0.28,3.062,0.28,3.062c0.179,0.028,0.358,0.057,0.537,0.076
					c2.434,0.323,3.67-0.331,4.302-1.154c0.344-0.452,0.503-0.961,0.576-1.384c0.09-0.488,0.042-0.857,0.042-0.857
					c-1.393,0.6-3.685,0.473-4.906,0.354C387.578,158.921,387.259,158.868,387.259,158.868z"/>
				<path style="fill:#FFFFFF;" d="M388.09,158.965l0.106,0.901c2.293,0.299,3.948,0.201,4.758-0.399
					c0.09-0.488,0.042-0.857,0.042-0.857C391.604,159.21,389.312,159.084,388.09,158.965z"/>
				<path style="fill:#DE5753;" d="M388.077,162.006c2.434,0.323,3.67-0.331,4.302-1.154c-0.834-0.078-1.848-0.079-2.774,0.177
					C388.896,161.221,388.415,161.601,388.077,162.006z"/>
			</g>
			<path style="fill:#263238;" d="M402.774,156.112c0,0-2.228-7.615-0.422-12.658c0,0-14.617-10.447-19.308,5.79
				c0,0,1.875-14.961,15.991-11.959c14.093,2.997,9.189,23.526,0.488,27.928C399.523,165.214,404.142,160.868,402.774,156.112z"/>
			<path style="fill:#EEC1BB;" d="M401.032,157.52c0.366-1.302,2.25-3.206,4.632-2.359c2.465,0.876,2.44,6.357-4.151,6.114
				C400.568,161.24,400.268,160.236,401.032,157.52z"/>
		</g>
		<path style="fill:#263238;" d="M397.111,140.232c0,0-3.023,10.284,6.184,14.943c11.123,5.63,10.067,17.796-0.783,19.342
			c0,0,10.955-1.095,13.084-8.259c2.163-7.277-3.913-18.173-3.913-18.173s3.33-6.053-5.661-10.81
			C400.951,134.594,397.111,140.232,397.111,140.232z"/>
		<path style="fill:none;stroke:#263238;stroke-width:0.5;stroke-linecap:round;stroke-linejoin:round;stroke-miterlimit:10;" d="
			M398.157,139.006c0,0-4.188,3.02-1.07,10.914"/>
		<path style="fill:none;stroke:#263238;stroke-width:0.5;stroke-linecap:round;stroke-linejoin:round;stroke-miterlimit:10;" d="
			M380.95,151.508c0,0-11.513,7.453-4.047,17.053"/>
		<path style="fill:#EEC1BB;" d="M380.627,367.932c6.38,8.02,12.115,15.3,17.115,20.6v0.01c5,5.37,7.575,8.7,7.575,8.7l4.947-2.84
			c0,0-4.571-7.23-10.771-17.2c-5.27-8.46-11.726-18.9-17.586-28.57c-7.58-12.5-14.163-23.71-15.903-27.72
			c-1.24-2.85,2.118-13.8,5.828-24.12c3.77-10.51,7.909-20.38,7.909-20.38l-13.49-22.85c0,0-5.49,15.21-10.37,31.26
			c-3.21,10.5-6.128,21.37-7.118,28.59C347.385,323.492,364.788,348.002,380.627,367.932z"/>
		<path style="opacity:0.2;enable-background:new    ;" d="M380.582,367.932c6.38,8.02,12.51,15.3,17.07,20.6
			c0.65-3.26,1.31-7.12,1.83-11.33c-5.27-8.46-11.72-18.9-17.58-28.57C381.953,353.752,381.763,361.322,380.582,367.932z"/>
		<path style="opacity:0.2;enable-background:new    ;" d="M355.883,284.822l15.95,11.97c3.77-10.51,7.91-20.38,7.91-20.38
			l-13.49-22.85C366.253,253.562,360.763,268.772,355.883,284.822z"/>
		<path style="fill:#EEC1BB;" d="M383.742,408.912l5.75,0.75c0,0,8.25-40.61,8-74.12c0,0,4.48-15.49,7.16-33.73
			c2.02-13.72,3.02-29,0.34-40.4l-20,9l-0.41,30l-0.34,25L383.742,408.912z"/>
		<path style="opacity:0.2;enable-background:new    ;" d="M384.582,300.412l20.07,1.4c2.02-13.72,3.02-29,0.34-40.4l-20,9
			L384.582,300.412z"/>
		<path style="fill:#263238;" d="M409.934,391.248c-0.589-0.428-5.568,7.031-5.568,7.031s1.109,7.776-1.138,12.791
			c-2.247,5.015,2.118,4.587,5.747-0.164c3.629-4.751,6.398-8.377,8.976-11.753C420.529,395.777,416.042,395.691,409.934,391.248z"
			/>
		<g>
			<path style="fill:#407BFF;" d="M402.517,403.927c-0.205,0-0.465-0.091-0.729-0.426c-0.165-0.207-0.229-0.459-0.191-0.747
				c0.072-0.543,0.526-1.172,1.043-1.728c-0.75,0.342-1.511,0.562-1.902,0.299c-0.254-0.172-0.335-0.483-0.241-0.924
				c0.088-0.414,0.316-0.73,0.678-0.939c1.136-0.657,3.24,0.008,3.344,0.04c0.03,0.009,0.057,0.025,0.082,0.046l0,0l0.001,0.001h0
				c0,0,0,0.003,0.001,0.001h0c0.02,0.017,0.036,0.037,0.049,0.06l0,0h0.001c0.013,0.023,0.021,0.047,0.026,0.071l0,0.001l0,0
				c0.006,0.031,0.006,0.062-0.001,0.094c-0.135,0.644-0.87,3.868-2.001,4.133C402.629,403.92,402.575,403.927,402.517,403.927z
				 M404.061,400.335c-0.786,0.661-1.9,1.742-1.997,2.48c-0.021,0.159,0.01,0.288,0.093,0.393c0.226,0.286,0.365,0.252,0.412,0.241
				C403.1,403.324,403.704,401.721,404.061,400.335z M402.49,399.642c-0.399,0-0.787,0.059-1.079,0.228
				c-0.244,0.141-0.392,0.347-0.452,0.63c-0.028,0.132-0.06,0.365,0.043,0.434c0.335,0.228,1.664-0.367,2.868-1.115
				C403.505,399.734,402.989,399.642,402.49,399.642z"/>
		</g>
		<path style="fill:#263238;" d="M391.532,405.992c-0.017-0.728-8.968-0.157-8.968-0.157s-5.506,5.601-10.855,6.859
			c-5.349,1.259-2.36,4.468,3.618,4.468c5.978,0,10.541,0,14.789,0C394.364,417.162,391.709,413.543,391.532,405.992z"/>
		<g>
			<path style="fill:#407BFF;" d="M377.855,408.125c-0.327,0-0.603-0.062-0.79-0.215c-0.173-0.142-0.352-0.424-0.216-0.954
				c0.065-0.257,0.226-0.461,0.478-0.606c0.475-0.272,1.251-0.292,2.007-0.219c-0.727-0.388-1.365-0.861-1.392-1.331
				c-0.017-0.306,0.181-0.559,0.589-0.753c0.383-0.179,0.772-0.192,1.158-0.032c1.208,0.503,1.959,2.575,1.997,2.682
				c0.011,0.029,0.016,0.062,0.014,0.095l0,0c0,0.001,0,0.001,0,0.001l0,0.001l0,0c-0.001,0.026-0.008,0.051-0.017,0.073l0,0.001
				l0,0c-0.01,0.024-0.024,0.046-0.041,0.065l0,0l-0.001,0.001c-0.02,0.023-0.045,0.042-0.074,0.055
				C381.094,407.215,379.106,408.125,377.855,408.125z M378.618,406.564c-0.429,0-0.808,0.054-1.055,0.196
				c-0.139,0.08-0.223,0.182-0.256,0.313c-0.089,0.351,0.022,0.443,0.059,0.473c0.422,0.347,2.061-0.146,3.381-0.705
				C380.128,406.703,379.307,406.564,378.618,406.564z M379.144,404.376c-0.136,0-0.273,0.033-0.412,0.099
				c-0.123,0.057-0.327,0.174-0.32,0.298c0.023,0.403,1.303,1.098,2.628,1.602c-0.279-0.614-0.833-1.632-1.534-1.923
				C379.385,404.401,379.264,404.376,379.144,404.376z"/>
		</g>
		<path style="fill:#407BFF;" d="M375.699,291.162l-21.626-11.333c6.803-20.674,12.937-32.398,12.937-32.398
			c21.26,3.641,19.318,20.445,19.318,20.445S380.912,279.092,375.699,291.162z"/>
		<path style="opacity:0.6;fill:#FFFFFF;enable-background:new    ;" d="M377.09,287.973c-0.461,1.05-0.924,2.119-1.386,3.189
			l-21.628-11.333c6.801-20.672,12.933-32.398,12.933-32.398c13.121,2.256,17.406,9.515,18.766,14.745
			c0.84,3.238,0.557,5.701,0.557,5.701S381.838,277.193,377.09,287.973z"/>
		<path style="opacity:0.2;enable-background:new    ;" d="M377.09,287.973c4.748-10.78,9.241-20.097,9.241-20.097
			s0.283-2.464-0.557-5.701c-1.255-0.774-2.218-0.935-2.218-0.935S377.779,270.311,377.09,287.973z"/>
		<g>
			<path style="fill:#407BFF;" d="M382.398,295.828l0.746-34.588L366,256.235c0,0,1.348-15.87,3.349-23.695
				c0,0,27.846-6.932,32.094,2.507c0.019,0.038,0.038,0.153,0.057,0.2l0.066,0.089c0,0,8.001,14.072,5.612,60.493H382.398z"/>
			<path style="opacity:0.6;fill:#FFFFFF;enable-background:new    ;" d="M382.398,295.828l0.746-34.588L366,256.235
				c0,0,1.348-15.87,3.349-23.695c0,0,27.846-6.932,32.094,2.507c0.019,0.038,0.038,0.153,0.057,0.2l0.066,0.089
				c0,0,8.001,14.072,5.612,60.493H382.398z"/>
		</g>
		<g>
			<polygon style="fill:#263238;" points="401.742,230.26 401.742,234.979 369.742,232.507 369.742,226.926 			"/>
			
				<rect x="390.694" y="228.31" transform="matrix(-0.9987 -0.051 0.051 -0.9987 770.6193 484.4516)" style="fill:#407BFF;" width="1.601" height="8.156"/>
			
				<rect x="376.686" y="228.381" transform="matrix(-0.996 -0.0892 0.0892 -0.996 738.3243 495.1237)" style="fill:#FFFFFF;" width="7.077" height="5.367"/>
			
				<rect x="370.998" y="226.148" transform="matrix(-0.9987 -0.051 0.051 -0.9987 731.3787 479.103)" style="fill:#407BFF;" width="1.601" height="8.156"/>
			
				<rect x="390.694" y="228.31" transform="matrix(-0.9987 -0.051 0.051 -0.9987 770.6193 484.4516)" style="opacity:0.6;fill:#FFFFFF;enable-background:new    ;" width="1.601" height="8.156"/>
			
				<rect x="370.998" y="226.148" transform="matrix(-0.9987 -0.051 0.051 -0.9987 731.3787 479.103)" style="opacity:0.6;fill:#FFFFFF;enable-background:new    ;" width="1.601" height="8.156"/>
		</g>
		<polygon style="fill:#407BFF;" points="409.242,294.412 380.992,294.162 381.492,298.412 407.992,298.162 		"/>
		<polygon style="fill:#407BFF;" points="377.492,290.912 353.992,278.162 352.742,281.912 375.492,293.162 		"/>
		<path style="fill:#EEC1BB;" d="M365.555,173.888l5.384-9.527c0,0,2.378-1.744,3.092-2.695c0.714-0.951,3.077-3.99,2.482-3.99
			s-11.163-1.797-11.758-1.083c-0.595,0.714,2.537,6.501,2.537,6.501l-6.116,7.061L365.555,173.888z"/>
		<g>
			<path style="fill:#407BFF;" d="M364.547,156.128c0,0-0.292,0.553-0.149,1.359c0.143,0.806,1.098,1.958,2.132,1.836
				c1.034-0.122,1.818-1.024,3.34-0.594c1.521,0.43,2.31,0.963,3.516,1.023c1.205,0.06,1.673,0.505,2.396,0.821
				c0.723,0.316,0.958,0.547,2.523,0.285c1.565-0.262,2.575-0.363,3.124-0.555c0.549-0.192,2.739,0.907,2.739,0.907
				s0.543-1.669-2.724-4.422S364.547,156.128,364.547,156.128z"/>
			<path style="fill:#407BFF;" d="M384.41,160.574c-0.126-0.517-0.325-1.008-0.661-1.465c-0.581-0.79-1.378-1.401-1.888-2.243
				c-0.176-0.29-0.341-0.637-0.409-0.989c-0.41-0.09-0.838-0.135-1.223-0.29c-0.642-0.258-1.076-0.726-1.442-1.297
				c-0.329-0.514-0.622-0.96-1.222-1.168c-0.844-0.292-2.03-0.365-2.686-1.055c-3.814,1.222-7.346,2.615-10.33,4.062
				c0.079,0.112,0.166,0.223,0.256,0.351c0.224,0.314,0.474,0.674,0.751,1.046c0.071,0.114,0.159,0.233,0.238,0.345
				c0.54,0.764,1.228,0.65,1.95,0.395c0.064-0.02,0.136-0.041,0.208-0.062c0.536-0.205,1.093-0.439,1.628-0.416
				c0.585,0.022,1.238,0.184,1.994,0.455c-0.037,0.074-0.076,0.14-0.131,0.209c0.11-0.045,0.212-0.088,0.304-0.138
				c0.886,0.34,1.914,0.814,3.124,1.358c0.458,0.205,0.897,0.354,1.328,0.455c0.107,0.032,0.212,0.055,0.316,0.07
				c0.924,0.173,1.786,0.138,2.65-0.024c0.644-0.123,1.294-0.306,1.955-0.525c2.08-0.673,3.05,1.565,3.05,1.565
				s0.121-0.066,0.242-0.212C384.403,160.859,384.402,160.717,384.41,160.574z"/>
			<path style="opacity:0.3;fill:#FFFFFF;" d="M384.41,160.574c-0.126-0.517-0.325-1.008-0.661-1.465
				c-0.581-0.79-1.378-1.401-1.888-2.243c-0.176-0.29-0.341-0.637-0.409-0.989c-0.41-0.09-0.838-0.135-1.223-0.29
				c-0.642-0.258-1.076-0.726-1.442-1.297c-0.329-0.514-0.622-0.96-1.222-1.168c-0.718-0.248-1.684-0.338-2.362-0.782
				c-3.884,1.234-7.46,2.662-10.398,4.139c0.224,0.314,0.474,0.674,0.751,1.046c0.071,0.114,0.159,0.233,0.238,0.345
				c0.54,0.764,1.228,0.65,1.95,0.395c0.064-0.02,0.136-0.041,0.208-0.062c0.536-0.205,1.093-0.439,1.628-0.416
				c0.585,0.022,1.238,0.184,1.994,0.455c-0.037,0.074-0.076,0.14-0.131,0.209c0.11-0.045,0.212-0.088,0.304-0.138
				c0.886,0.34,1.914,0.814,3.124,1.358c0.458,0.205,0.897,0.354,1.328,0.455c0.107,0.032,0.212,0.055,0.316,0.07
				c0.924,0.173,1.786,0.138,2.65-0.024c0.644-0.123,1.294-0.306,1.955-0.525c2.08-0.673,3.05,1.565,3.05,1.565
				s0.121-0.066,0.242-0.212C384.403,160.859,384.402,160.717,384.41,160.574z"/>
			<path style="opacity:0.3;fill:#FFFFFF;" d="M383.749,159.109c-0.51-0.693-1.175-1.257-1.678-1.951
				c-0.061,0.056-0.122,0.11-0.187,0.161c-0.348,0.272-0.807,0.346-1.242,0.406c-0.312,0.047-0.65,0.09-0.93-0.062
				c-0.15-0.083-0.276-0.221-0.426-0.312c-0.196-0.108-0.456-0.146-0.559-0.347c-0.089-0.17,0.004-0.405,0.179-0.462
				c0.499-0.181,0.812-0.456,1.331-0.574c0.246-0.055,0.476-0.114,0.697-0.192c-0.241-0.046-0.48-0.099-0.705-0.189
				c-0.642-0.258-1.076-0.726-1.442-1.297c-0.329-0.514-0.622-0.96-1.222-1.168c-0.227-0.079-0.479-0.141-0.74-0.203
				c-0.341,0.177-0.702,0.318-1.355,0.366c-1.288,0.102-2.11-0.35-2.789,0.664c-0.18,0.268-0.291,0.448-0.393,0.584
				c-0.28,0.37-0.429,0.338-1.387,0.592c-1.303,0.35-2.267-0.002-2.96,0.889c-0.681,0.863-0.896,1.171-2.386,1.511
				c0.071,0.114,0.159,0.233,0.238,0.345c0.54,0.764,1.228,0.65,1.95,0.395c0.06-0.087,0.121-0.173,0.194-0.237
				c0.089-0.117,0.19-0.211,0.301-0.298c0.485-0.398,0.817-0.288,1.417-0.277c0.025-0.004,0.026,0.004,0.034,0.002
				c0.008-0.001,0.008-0.001,0.033-0.006c0.041-0.007,0.091-0.008,0.132-0.015c0.042,0.001,0.082-0.014,0.124-0.014
				c0.079-0.031,0.133-0.057,0.196-0.085l0.007-0.01c0.045-0.033,0.134-0.1,0.157-0.112c0.163-0.13,0.325-0.26,0.484-0.406
				c0.045-0.033,0.096-0.076,0.139-0.117c0.562-0.488,1.121-0.949,1.862-1.14c1.07-0.283,1.708,0.177,2.527,0.705
				c0.268,0.18,0.607,0.288,0.925,0.223c0.137-0.033,0.335-0.06,0.368,0.078c0.026,0.097-0.077,0.182-0.161,0.231
				c-0.183,0.108-0.358,0.215-0.541,0.324c-0.091,0.058-0.19,0.118-0.304,0.138c-0.245,0.044-0.471-0.135-0.68-0.267
				c-0.303-0.19-0.635-0.115-0.943-0.136c-0.684-0.055-1.15-0.023-1.732,0.308c-0.031,0.014-0.07,0.029-0.1,0.052
				c-0.479,0.296-0.439,0.66-0.608,1.035c-0.037,0.074-0.076,0.14-0.131,0.209c0.11-0.045,0.212-0.088,0.304-0.138
				c0.886,0.34,1.914,0.814,3.124,1.358c0.458,0.205,0.897,0.354,1.328,0.455c0.107,0.032,0.212,0.055,0.316,0.07
				c0.924,0.173,1.786,0.138,2.65-0.024c0.069-0.13,0.12-0.274,0.227-0.386c0.107-0.112,0.274-0.167,0.424-0.219
				c0.51-0.166,1.029-0.326,1.539-0.493c0.262-0.089,0.568-0.169,0.798-0.015c0.18,0.111,0.262,0.333,0.435,0.454
				c0.181,0.119,0.416,0.111,0.63,0.082c0.212-0.038,0.431-0.085,0.635-0.029c0.098,0.025,0.188,0.086,0.255,0.162
				C384.006,159.516,383.896,159.308,383.749,159.109z"/>
			<g>
				<path style="fill:#407BFF;" d="M367.931,158.139c0.004,0.024,0.007,0.041,0.02,0.064c0.537-0.205,1.093-0.439,1.628-0.416
					c0.585,0.022,1.238,0.184,1.994,0.455c-0.037,0.074-0.076,0.14-0.131,0.209c0.11-0.045,0.212-0.088,0.304-0.138
					c0.487-0.247,0.777-0.559,0.734-0.847c-0.02-0.114-0.082-0.221-0.199-0.31c-0.275-0.221-0.811-0.345-1.461-0.347
					c-0.236,0-0.494,0.02-0.757,0.059c-1.166,0.174-2.07,0.68-2.128,1.162C367.926,158.064,367.925,158.107,367.931,158.139z"/>
				<polygon style="fill:#407BFF;" points="377.521,155.76 377.765,154.613 376.149,154.794 375.816,156.014 				"/>
				<path style="fill:#407BFF;" d="M376.197,160.125c0.107,0.032,0.212,0.055,0.316,0.07l-0.11-0.242L376.197,160.125z"/>
				<polygon style="fill:#407BFF;" points="378.901,157.675 377.149,157.725 377.599,158.692 				"/>
				<polygon style="fill:#407BFF;" points="372.249,154.254 370.902,155.126 372.347,154.911 				"/>
			</g>
		</g>
		<path style="fill:#407BFF;" d="M372.34,176.15l-1.35,11.72l-2.23,19.4c0,0-6.64,3.25-13.33,4.75c-5.61,1.27-11.25,1.31-13.05-2.8
			c-6.82-15.63,20.48-42.23,20.48-42.23l6.88,4.9l-3.12,7.22C366.62,179.11,368.76,176.48,372.34,176.15z"/>
		<path style="opacity:0.2;enable-background:new    ;" d="M370.99,187.87l-2.23,19.4c0,0-6.64,3.25-13.33,4.75
			C356.04,200.54,367.77,190.44,370.99,187.87z"/>
		<path style="fill:#407BFF;" d="M439.11,234.98c-14.84,4.99-23.05-9.91-23.05-9.91s0.15,6.29,0.15,13.9
			c0.01,8.8-0.18,19.36-1.03,23.99c-1.59,8.64-7.56,9.56-7.56,9.56c-6.16-0.79-45.37-14.66-45.37-14.66
			c-5.07-10.1,3.67-26.09,4.66-29.9c0.99-3.82-0.79-21.51-0.79-21.51s0,0-0.12-11.28c-0.12-11.27,6.34-19.02,6.34-19.02
			c1.98-0.5,9.39-1.63,9.39,0.09c-0.12,0.35-0.62,2.52,10.65,8.72c10.43,5.75,22.77,5.47,28.09,4.49c4.86,7.79,4.99,9.38,5.88,9.65
			c1.39,0.42-0.36-15.46-0.36-15.46l6.99-2.34C432.98,181.3,453.95,229.99,439.11,234.98z"/>
		<path style="opacity:0.2;enable-background:new    ;" d="M416.21,238.97c-2.36-1.23-5.51-3.78-8.3-9.02
			c-5.3-9.93,1.33-24.62,1.33-24.62c-0.26,7.92,6.82,19.74,6.82,19.74S416.21,231.36,416.21,238.97z"/>
		<path style="opacity:0.2;enable-background:new    ;" d="M366.62,179.11c0,0-8.411,22.396-14.345,26.22
			c0,0,5.469-1.187,8.405-8.044C363.615,190.429,366.62,179.11,366.62,179.11z"/>
		<path style="opacity:0.4;fill:#FFFFFF;enable-background:new    ;" d="M398.63,221.76c0.39,0.98,0.51,3.91,0.5,7.32
			c-0.02,6.4-0.5,14.49-0.5,14.49l-28.42-6.36c0,0,2.91-11.42,3.43-15.45c0.13-0.99,0.08-2.36-0.07-3.87
			c-0.43-4.65-1.77-10.62-1.77-10.62l2.58-9.46l25.6,2.13C399.98,199.94,397.51,218.93,398.63,221.76z"/>
		<path style="opacity:0.2;fill:#FFFFFF;" d="M399.13,229.08c-0.02,6.4-0.5,14.49-0.5,14.49l-28.42-6.36c0,0,2.91-11.42,3.43-15.45
			c0.13-0.99,0.08-2.36-0.07-3.87l5.33,7.18l9.9-9.07L399.13,229.08z"/>
	</g>
</g>
</svg>
