<svg width="1728" height="1117" viewBox="0 0 1728 1117" fill="none" xmlns="http://www.w3.org/2000/svg">
<g clip-path="url(#clip0_16_161)">
<rect width="1728" height="1117" fill="black"/>
<g filter="url(#filter0_f_16_161)">
<path d="M-30.8552 -39.5736C-30.8552 -39.5736 -50.8871 79.4512 -48.8553 82.343C-46.8234 85.2349 175.402 271.469 274.192 382.132C359.51 477.704 484.673 566.49 545.645 587.343C650.473 684.984 790.974 682.209 921.145 734.843H1236.38H1391.27L1554.19 708.186L1719.41 659.63L1957.14 606.343L2003.14 434.343C2007.72 380.35 2032.29 222.436 2021.31 222.436C2007.59 222.436 1934.11 -36.4318 1941.14 -39.5736C1946.77 -42.0871 1806.09 -199.429 1741.23 -217L1512.15 -110.44L1462.64 20.343L1338.64 222.436L1205.7 360.492C1177.67 389.699 1050.24 474.3 939.288 474.3C804.744 484.074 768.645 474.3 716.389 449.514L636.145 406.843L545.645 340.843C535.831 356.247 461.664 279.948 360.393 154.523C299.253 78.8005 276.303 -38.5621 274.192 -72.657L254.507 -110.44L197.669 -164.549L133.103 -200.157H89.1229L19.81 -164.549L-30.8552 -110.44V-39.5736Z" fill="url(#paint0_linear_16_161)"/>
<path d="M-30.8552 -39.5736C-30.8552 -39.5736 -50.8871 79.4512 -48.8553 82.343C-46.8234 85.2349 175.402 271.469 274.192 382.132C359.51 477.704 484.673 566.49 545.645 587.343C650.473 684.984 790.974 682.209 921.145 734.843H1236.38H1391.27L1554.19 708.186L1719.41 659.63L1957.14 606.343L2003.14 434.343C2007.72 380.35 2032.29 222.436 2021.31 222.436C2007.59 222.436 1934.11 -36.4318 1941.14 -39.5736C1946.77 -42.0871 1806.09 -199.429 1741.23 -217L1512.15 -110.44L1462.64 20.343L1338.64 222.436L1205.7 360.492C1177.67 389.699 1050.24 474.3 939.288 474.3C804.744 484.074 768.645 474.3 716.389 449.514L636.145 406.843L545.645 340.843C535.831 356.247 461.664 279.948 360.393 154.523C299.253 78.8005 276.303 -38.5621 274.192 -72.657L254.507 -110.44L197.669 -164.549L133.103 -200.157H89.1229L19.81 -164.549L-30.8552 -110.44V-39.5736Z" stroke="black"/>
</g>
<path d="M1728 1485.5C1728 1256.22 1636.92 1036.33 1474.79 874.206C1312.67 712.081 1092.78 621 863.5 621C634.22 621 414.331 712.081 252.206 874.206C90.081 1036.33 -0.999965 1256.22 -1 1485.5L863.5 1485.5H1728Z" fill="url(#paint1_linear_16_161)"/>
<mask id="path-3-inside-1_16_161" fill="white">
<path d="M1664 1541C1664 1328.83 1579.71 1125.34 1429.69 975.315C1279.66 825.285 1076.17 741 864 741C651.827 741 448.344 825.285 298.315 975.315C148.286 1125.34 64 1328.83 64 1541L864 1541H1664Z"/>
</mask>
<path d="M1664 1541C1664 1328.83 1579.71 1125.34 1429.69 975.315C1279.66 825.285 1076.17 741 864 741C651.827 741 448.344 825.285 298.315 975.315C148.286 1125.34 64 1328.83 64 1541L864 1541H1664Z" fill="url(#paint2_linear_16_161)" stroke="url(#paint3_linear_16_161)" stroke-width="4" mask="url(#path-3-inside-1_16_161)"/>
</g>
<defs>
<filter id="filter0_f_16_161" x="-349.5" y="-517.53" width="2674.11" height="1552.87" filterUnits="userSpaceOnUse" color-interpolation-filters="sRGB">
<feFlood flood-opacity="0" result="BackgroundImageFix"/>
<feBlend mode="normal" in="SourceGraphic" in2="BackgroundImageFix" result="shape"/>
<feGaussianBlur stdDeviation="150" result="effect1_foregroundBlur_16_161"/>
</filter>
<linearGradient id="paint0_linear_16_161" x1="-294.855" y1="-259.157" x2="2024.11" y2="641.256" gradientUnits="userSpaceOnUse">
<stop offset="0.25" stop-color="#062D54"/>
<stop offset="0.451923" stop-color="#0F6935"/>
<stop offset="0.918269" stop-color="#2173C5"/>
</linearGradient>
<linearGradient id="paint1_linear_16_161" x1="864" y1="557" x2="864" y2="1341.5" gradientUnits="userSpaceOnUse">
<stop offset="0.0192308" stop-color="#2EE19F" stop-opacity="0.38"/>
<stop offset="0.211538" stop-color="#0B6D4B" stop-opacity="0.79"/>
<stop offset="0.408654"/>
</linearGradient>
<linearGradient id="paint2_linear_16_161" x1="864" y1="741" x2="864" y2="1343" gradientUnits="userSpaceOnUse">
<stop stop-color="#0A3626"/>
<stop offset="0.418269"/>
</linearGradient>
<linearGradient id="paint3_linear_16_161" x1="864" y1="629" x2="864" y2="1203" gradientUnits="userSpaceOnUse">
<stop offset="0.206731" stop-color="#47AF8C"/>
<stop offset="0.745192"/>
</linearGradient>
<clipPath id="clip0_16_161">
<rect width="1728" height="1117" fill="white"/>
</clipPath>
</defs>
</svg>
